<?xml version="1.0" encoding="utf-8"?>
<!-- Generator: Adobe Illustrator 23.0.1, SVG Export Plug-In . SVG Version: 6.00 Build 0)  -->
<svg version="1.1" id="UI_x5F_icons" xmlns="http://www.w3.org/2000/svg" xmlns:xlink="http://www.w3.org/1999/xlink" x="0px"
	 y="0px" viewBox="0 0 128 128" style="enable-background:new 0 0 128 128;" xml:space="preserve">
<style type="text/css">
	.st0{display:none;}
	.st1{display:inline;fill:#333333;}
	.st2{fill:#DDDDDD;}
	.st3{display:none;fill:#DDDDDD;}
</style>
<g id="row12" class="st0">
	<path id="Left" class="st1" d="M64.3,2.7l-58.6,52C0.3,59.5,0.1,67.9,5.2,73l52.2,51.9c4.4,4.3,11.6,4.1,15.6-0.8
		c3.5-4.3,2.7-10.6-1.2-14.5L36.5,74.5H116c6.2,0,11.1-5.3,10.4-11.6c-0.5-5.5-5.5-9.4-11-9.4H38.7l39.1-34.8
		c4.3-3.8,5.2-10.4,1.6-14.9C77.3,1.3,74.3,0,71.3,0C68.8,0,66.3,0.9,64.3,2.7z"/>
	<path id="right_2_" class="st1" d="M63.7,125.3l58.6-52c5.4-4.8,5.7-13.2,0.5-18.3L70.6,3.1C66.2-1.3,59-1,55,3.9
		c-3.5,4.3-2.7,10.6,1.2,14.5l35.3,35.1H12c-6.1,0-11,5.3-10.4,11.6c0.5,5.5,5.5,9.4,11,9.4h76.7l-39.1,34.8
		c-4.3,3.8-5.2,10.4-1.6,14.9c2.1,2.6,5.1,3.9,8.1,3.9C59.2,128,61.7,127.1,63.7,125.3z"/>
	<path id="Up" class="st1" d="M64,0c35.3,0,64,28.7,64,64s-28.7,64-64,64S0,99.3,0,64S28.7,0,64,0z M64,115.7
		c28.5,0,51.7-23.2,51.7-51.7S92.5,12.3,64,12.3S12.3,35.5,12.3,64S35.5,115.7,64,115.7z M100,65.6L69.5,31.3
		c-2.8-3.2-7.8-3.3-10.8-0.3L28.3,61.6c-2.5,2.6-2.4,6.8,0.5,9.1c2.5,2,6.2,1.6,8.5-0.7l20.6-20.7v46.6c0,3.6,3.1,6.5,6.8,6.1
		c3.2-0.3,5.5-3.3,5.5-6.5v-45l20.4,23c2.2,2.5,6.1,3.1,8.7,0.9c1.5-1.2,2.3-3,2.3-4.8C101.5,68.3,101,66.8,100,65.6z"/>
	<path id="right_3_" class="st1" d="M128,64c0,35.3-28.7,64-64,64S0,99.3,0,64S28.7,0,64,0S128,28.7,128,64z M12.3,64
		c0,28.5,23.2,51.7,51.7,51.7s51.7-23.2,51.7-51.7S92.5,12.3,64,12.3S12.3,35.5,12.3,64z M62.4,100l34.4-30.5
		c3.2-2.8,3.3-7.8,0.3-10.8L66.4,28.3c-2.6-2.5-6.8-2.4-9.1,0.5c-2,2.5-1.6,6.2,0.7,8.5l20.7,20.6H32.1c-3.6,0-6.5,3.1-6.1,6.8
		c0.3,3.2,3.3,5.5,6.5,5.5h45l-23,20.4c-2.5,2.2-3.1,6.1-0.9,8.7c1.2,1.5,3,2.3,4.8,2.3C59.7,101.5,61.2,101,62.4,100z"/>
	<path id="arrow_x5F_Up" class="st1" d="M64,0c35.3,0,64,28.7,64,64s-28.7,64-64,64S0,99.3,0,64S28.7,0,64,0z M64,115.7
		c28.5,0,51.7-23.2,51.7-51.7S92.5,12.3,64,12.3S12.3,35.5,12.3,64S35.5,115.7,64,115.7z M38.8,76.9h50.3L64,39.2L38.8,76.9z"/>
	<path id="arrow_x5F_right" class="st1" d="M128,64c0,35.3-28.7,64-64,64S0,99.3,0,64S28.7,0,64,0S128,28.7,128,64z M12.3,64
		c0,28.5,23.2,51.7,51.7,51.7s51.7-23.2,51.7-51.7S92.5,12.3,64,12.3S12.3,35.5,12.3,64z M51.1,38.9v50.3L88.8,64L51.1,38.9z"/>
	<path id="arrow_x5F_down" class="st1" d="M64,128C28.7,128,0,99.3,0,64S28.7,0,64,0s64,28.7,64,64S99.3,128,64,128z M64,12.3
		c-28.5,0-51.7,23.2-51.7,51.7s23.2,51.7,51.7,51.7s51.7-23.2,51.7-51.7S92.5,12.3,64,12.3z M89.2,51.1H38.8L64,88.8L89.2,51.1z"/>
	<path id="chevronDown" class="st1" d="M64,121.8L0,69.1l12.8-15.6L64,95.7l51.2-42.1L128,69.1L64,121.8z M64,74.4L0,21.7L12.8,6.2
		L64,48.3l51.2-42.1L128,21.7L64,74.4z"/>
	<path id="chevronLeft" class="st1" d="M69.2,128l-15.6-12.8L95.7,64L53.6,12.8L69.2,0l52.7,64L69.2,128z M21.7,128L6.1,115.2
		L48.3,64L6.1,12.8L21.7,0l52.7,64L21.7,128z"/>
	<path id="chevronUp" class="st1" d="M115.2,121.8L64,79.7l-51.2,42.1L0,106.3l64-52.7l64,52.7L115.2,121.8z M115.2,74.4L64,32.3
		L12.8,74.4L0,58.9L64,6.2l64,52.7L115.2,74.4z"/>
</g>
<g id="row11" class="st0">
	<path id="right_5_" class="st1" d="M10.7,0l52.7,64l-52.7,64C10.7,128,10.7,0,10.7,0z M64.6,128l52.7-64L64.6,0V128z"/>
	<path id="left_3_" class="st1" d="M117.3,128L64.6,64l52.7-64V128z M63.4,0L10.7,64l52.7,64V0z"/>
	<polygon id="triangleDown_1_" class="st1" points="0,24.9 128,24.9 64,103.1 	"/>
	<polygon id="triangleUp_1_" class="st1" points="128,103.1 0,103.1 64,24.9 	"/>
	<polygon id="triangle_1_" class="st1" points="24.9,128 24.9,0 103.1,64 	"/>
	<path id="logout_1_" class="st1" d="M115,128H51c-5.7,0-10.3-4.6-10.3-10.3V84.8h8.8v32.9c0,0.8,0.7,1.5,1.5,1.5h64
		c0.8,0,1.5-0.7,1.5-1.5V10.3c0-0.8-0.7-1.5-1.5-1.5H51c-0.8,0-1.5,0.7-1.5,1.5v33.2h-8.8V10.3C40.7,4.6,45.3,0,51,0h64
		c5.7,0,10.3,4.6,10.3,10.3v107.4C125.3,123.4,120.7,128,115,128z M30.2,90.8L2.7,64l27.5-26.8l6.1,6.3L19.7,59.6h64.8v8.8H19.7
		l16.6,16.1L30.2,90.8z"/>
	<path id="Login_1_" class="st1" d="M47.9,128c-5.7,0-10.3-4.6-10.3-10.3V84.9h8.8v32.9c0,0.8,0.7,1.5,1.5,1.5H112l0,0
		c0.6,0,0.9-0.3,1.1-0.4c0.2-0.2,0.4-0.5,0.4-1.1V10.3c0-0.8-0.7-1.5-1.5-1.5H47.9c-0.8,0-1.5,0.7-1.5,1.5v33.2h-8.8V10.3
		C37.6,4.6,42.2,0,47.9,0H112c5.7,0,10.3,4.6,10.3,10.3v107.4c0,2.7-1.1,5.3-3,7.3c-1.9,1.9-4.5,3-7.3,3l0,0H47.9z M60.1,90.8
		L54,84.5l16.6-16.1H5.8v-8.8h64.8L54,43.5l6.1-6.3L87.6,64L60.1,90.8z"/>
	<path id="collapse_1_" class="st1" d="M121,128L87,93.9V115h-9.7V77.1h39v9.7H93.7l34.2,34.2L121,128z M7,128l-6.9-6.9l34.2-34.2
		H11.7v-9.7h39V115H41V93.9L7,128z M120.4,46.6h-39V8.7h9.7V30l30-30l6.9,6.9l-30,30h22.4V46.6z M46.7,46.6h-39v-9.7h22.4l-30-30
		L7,0l30,30V8.7h9.7V46.6z"/>
	<path id="expand_1_" class="st1" d="M127.9,128H89.1v-12.6h17.4L76.8,85.6l8.9-8.9l29.6,29.6v-16H128L127.9,128L127.9,128z
		 M38.9,128H0.1V90.3h12.7v16l29.6-29.6l8.9,8.9l-29.7,29.7H39L38.9,128L38.9,128z M89.6,47.3l-8.9-8.9l25.7-25.6H89.1V0H128v37.7
		h-12.7V21.6L89.6,47.3z M38.4,47.3L12.7,21.6v16.1H0.1V0H39v12.6H21.7l25.7,25.6L38.4,47.3z"/>
	<path id="grid_1_" class="st1" d="M48.9,49.2H0.3V0h48.6C48.9,0,48.9,49.2,48.9,49.2z M48.9,78.8H0.3V128h48.6
		C48.9,128,48.9,78.8,48.9,78.8z M127.7,78.8H79.1V128h48.6V78.8z M127.7,0H79.1v49.2h48.6V0z"/>
</g>
<g id="row10" class="st0">
	<path id="html" class="st1" d="M18.6,24.9l8.3,92.8L64,128l37.2-10.3l8.3-92.8C109.5,24.9,18.6,24.9,18.6,24.9z M91.5,55.3H47.9
		l1,11.6h41.5l-3.1,35L64,108.3l0,0l-23.3-6.5L39,83.6h11.4l0.9,9.5L64,96.5l0,0L76.7,93L78,78.3H38.6l-3.1-34.4h57L91.5,55.3z
		 M38,0v5.7h-5.3V0h-5.8v17.3h5.8v-5.8H38v5.8h5.8V0H38z M46.3,0v5.7h5.1v11.6h5.8V5.8h5.1V0H46.3z M78.2,0l-3.7,6.1L70.8,0h-6v17.3
		h5.6V8.7l4,6.2h0.1l4-6.2v8.6h5.8V0H78.2z M92.9,11.6V0h-5.8v17.3H101v-5.7C101,11.6,92.9,11.6,92.9,11.6z"/>
	<path id="insta" class="st1" d="M103.3,0H24.7C11.1,0,0,11.1,0,24.7v26.1v52.4C0,116.9,11.1,128,24.7,128h78.5
		c13.6,0,24.7-11.1,24.7-24.7V50.9V24.7C128,11.1,116.9,0,103.3,0z M110.4,14.8h2.8v2.8v18.9l-21.6,0.1l-0.1-21.7L110.4,14.8z
		 M45.7,50.9c4.1-5.7,10.7-9.4,18.3-9.4s14.2,3.7,18.3,9.4c2.7,3.7,4.3,8.2,4.3,13.1c0,12.4-10.1,22.5-22.5,22.5S41.6,76.4,41.6,64
		C41.5,59.1,43.1,54.6,45.7,50.9z M115.5,103.3c0,6.8-5.5,12.3-12.3,12.3H24.7c-6.8,0-12.3-5.5-12.3-12.3V50.9h19.1
		c-1.6,4-2.5,8.5-2.5,13.1c0,19.3,15.7,35,35,35s35-15.7,35-35c0-4.6-0.9-9.1-2.6-13.1h19.1V103.3z"/>
	<path id="wordpress" class="st1" d="M12.1,64c0,20.5,11.9,38.3,29.3,46.7L16.6,42.9C13.7,49.3,12.1,56.5,12.1,64z M99.1,61.4
		c0-6.4-2.3-10.9-4.3-14.3c-2.6-4.3-5.1-7.9-5.1-12.2c0-4.8,3.6-9.2,8.7-9.2c0.2,0,0.4,0,0.7,0C89.8,17.2,77.5,12.1,64,12.1
		c-18.1,0-34.1,9.3-43.4,23.4c1.2,0,2.4,0.1,3.3,0.1c5.4,0,13.8-0.7,13.8-0.7c2.8-0.2,3.1,3.9,0.3,4.3c0,0-2.8,0.3-5.9,0.5L51,95.9
		l11.4-34.1l-8.1-22.2c-2.8-0.2-5.4-0.5-5.4-0.5c-2.8-0.2-2.5-4.4,0.3-4.3c0,0,8.6,0.7,13.7,0.7c5.4,0,13.8-0.7,13.8-0.7
		c2.8-0.2,3.1,3.9,0.3,4.3c0,0-2.8,0.3-5.9,0.5l18.8,55.8l5.2-17.3C97.7,71.4,99.1,65.8,99.1,61.4z M64.9,68.5l-15.6,45.3
		c4.7,1.4,9.6,2.1,14.7,2.1c6,0,11.8-1,17.2-2.9c-0.1-0.2-0.3-0.5-0.4-0.7L64.9,68.5z M109.6,39.1c0.2,1.7,0.4,3.4,0.4,5.3
		c0,5.3-1,11.2-4,18.6l-15.9,45.8c15.4-9,25.8-25.7,25.8-44.9C115.9,55,113.6,46.5,109.6,39.1z M64,128C28.7,128,0,99.3,0,64
		S28.7,0,64,0s64,28.7,64,64S99.3,128,64,128z M64,6.3C32.2,6.3,6.3,32.2,6.3,64s25.9,57.7,57.7,57.7s57.7-25.9,57.7-57.7
		S95.8,6.3,64,6.3z"/>
	<path id="twitter" class="st1" d="M114.9,37.9c0.1,1.1,0.1,2.3,0.1,3.4C115,76,88.6,116,40.3,116c-14.8,0-28.6-4.3-40.3-11.8
		c2.1,0.2,4.1,0.4,6.3,0.4c12.3,0,23.6-4.2,32.6-11.2c-11.5-0.2-21.2-7.8-24.5-18.2c1.6,0.3,3.2,0.5,4.9,0.5c2.4,0,4.7-0.3,6.9-0.9
		c-12-2.4-21.1-13-21.1-25.7c0-0.1,0-0.2,0-0.3c3.5,2,7.6,3.1,11.9,3.3c-7-5-11.6-13-11.6-22.1c0-4.8,1.3-9.3,3.6-13.2
		c13,15.9,32.3,26.3,54.1,27.4c-0.4-1.9-0.7-3.9-0.7-6C62.4,23.8,74.1,12,88.6,12c7.6,0,14.4,3.2,19.2,8.3c6-1.2,11.6-3.4,16.7-6.4
		c-2,6.1-6.1,11.3-11.6,14.5c5.3-0.6,10.4-2,15.1-4.1C124.5,29.6,120,34.2,114.9,37.9z"/>
	<path id="linkedIn" class="st1" d="M64,0C28.7,0,0,28.7,0,64s28.7,64,64,64s64-28.6,64-64C128,28.7,99.3,0,64,0z M99.6,95.1
		c0,2.8-2.4,5.2-5.3,5.2H33.5c-2.9,0-5.3-2.3-5.3-5.2V33.5c0-2.8,2.4-5.2,5.3-5.2h60.9c2.9,0,5.3,2.3,5.3,5.2v61.6H99.6z M88.8,69.9
		v18.6H78V71.2c0-4.4-1.6-7.3-5.5-7.3c-3,0-4.8,2-5.5,3.9c-0.3,0.7-0.4,1.7-0.4,2.6v18.1H55.8c0,0,0.1-29.4,0-32.4h10.8v4.6
		c0,0,0,0.1-0.1,0.1h0.1v-0.1c1.4-2.2,4-5.4,9.7-5.4C83.5,55.3,88.8,60,88.8,69.9z M50.6,46c0,3.1-2.3,5.6-6.1,5.6h-0.1
		c-3.6,0-6-2.5-6-5.6c0-3.2,2.4-5.6,6.1-5.6C48.2,40.4,50.5,42.9,50.6,46z M39.1,56.1h10.8v32.4H39.1V56.1z"/>
	<path id="minus" class="st1" d="M64,128C28.7,128,0,99.3,0,64S28.7,0,64,0s64,28.7,64,64S99.3,128,64,128z M64,11.9
		c-28.8,0-52.1,23.4-52.1,52.1s23.4,52.1,52.1,52.1s52.1-23.4,52.1-52.1S92.8,11.9,64,11.9z M31,59.1h65.8v12H31V59.1z"/>
	<polygon id="down" class="st1" points="38.4,0 89.6,0 89.6,51.2 118.4,51.2 66.1,128 9.6,51.2 38.4,51.2 	"/>
	<polygon id="up" class="st1" points="89.6,128 38.4,128 38.4,76.8 9.6,76.8 61.9,0 118.4,76.8 89.6,76.8 	"/>
	<polygon id="right" class="st1" points="0,89.6 0,38.4 51.2,38.4 51.2,9.6 128,61.9 51.2,118.4 51.2,89.6 	"/>
	<polygon id="left" class="st1" points="128,38.4 128,89.6 76.8,89.6 76.8,118.4 0,66.1 76.8,9.6 76.8,38.4 	"/>
</g>
<g id="row9" class="st0">
	<path id="index_x5F_finger" class="st1" d="M107.6,89.8c-4.8,12.7-6.7,38.2-6.7,38.2H54.1c0,0,0-3.3-6.3-14
		C41.6,103.4,14.7,72.8,18,63.3c2.8-8.2,14.8-4,22.3,9.1V9.9c0-5.5,4.5-9.9,9.9-9.9c2.7,0,5.2,1.1,7,2.9s2.9,4.3,2.9,7v43.2
		c0-4.5,0-18.8,8.2-18.8c4.5,0,8.2,3.7,8.2,8.2v17.6c0,0,0-16.9,9-16.9c4.5,0,7.1,3.7,7.1,8.2v13.7c0-4.5,2.3-13.5,8.2-13.5
		c4.5,0,7.6,3.7,8.2,8.2C109.1,59.8,112.4,77,107.6,89.8z"/>
	<path id="menu_1_" class="st1" d="M128,27.4H0V9.2h128V27.4z M100.6,54.9H0v18.3h100.6V54.9z M82.3,100.6H0v18.3h82.3V100.6z"/>
	<path id="like_1_" class="st1" d="M83.9,128c-7.1,0-15.7-0.3-23.8-1.5c-10.4-1.5-18.7-4.3-23.9-6.4v6.9h-36V41.1h36v4.7
		c2.6-1.3,6-3.4,9.2-6.3c7.8-7,10.6-15.3,8.3-24.9c-2.1-8.9,0.6-12.4,3.2-13.8c4.3-2.3,10.5,0.3,16.6,6.9c7.8,8.6,13,21.5,9.2,33.3
		h30.2c8.3,0,15,6.7,15,15c0,5.3-2.7,9.9-6.9,12.6c1.5,2.1,2.4,4.8,2.4,7.6c0,5.1-2.9,9.5-7.1,11.7c1.5,2.2,2.4,4.7,2.4,7.3
		c0,5.4-3.3,10-7.9,12.1c1.2,2,2,4.4,2,6.9c0,7.2-5.8,13.1-13,13.2C98.5,127.5,92.2,128,83.9,128z M36.1,111.5
		c4.2,1.9,13.1,5.4,25.1,7.2c17.4,2.5,37.8,0.9,38,0.9h0.3c2.9,0,5.3-2.4,5.3-5.3c0-5.4-5.3-5.8-5.3-5.8h-7.4v-7.8h13.3
		c2.9,0,5.3-2.4,5.3-5.3s-3-5.8-6-5.8h-7.9v-7.8h13.3c2.9,0,5.3-2.4,5.3-5.3c0-2.5-1.7-4.6-4.1-5.2H99.5v-7.8h10.7v-0.1
		c0.7,0,1.3,0.1,2,0.1h0.7c3.9,0,7.2-3.2,7.2-7.2c0-3.9-3.2-7.2-7.2-7.2h-41l1.2-5.7c6.4-9.8,1.2-20.6-1.3-24.7
		c-4.2-6.9-9-10.1-10.9-10.6c-0.1,0.7-0.2,2.1,0.5,4.9C66.8,35.9,48,49.9,36.2,54.7L36.1,111.5L36.1,111.5z M8,119.1h20.3V48.9H8
		V119.1z M18.1,102.5c-3.1,0-5.5,2.5-5.5,5.5c0,3.1,2.5,5.5,5.5,5.5s5.5-2.5,5.5-5.5C23.7,105,21.2,102.5,18.1,102.5z"/>
	<path id="statistic_1_" class="st1" d="M29.6,115.4H10.5v-14h19.1V115.4z M55.5,80.4H36.4v35h19.1V80.4z M81.3,80.4h-19v35h19.1
		L81.3,80.4L81.3,80.4z M107.2,60.2h-19v55.2h19.1L107.2,60.2L107.2,60.2z M22.2,76.9l29.2-26.8h34l23.5-23.6l11.4,11.4V0H82.8
		l10.7,12.8L77.1,31.3H39.8L8.5,62.6L22.2,76.9z M120.2,41.4h-8.6v78H7.6v8.6h112.5L120.2,41.4L120.2,41.4z"/>
	<path id="Group_1_" class="st1" d="M128,128H95.3v-11.4H32.7V128H0V95.4h12.9V32.7H0V0h32.7v11.4h62.7V0H128v32.7h-10v62.7h10V128z
		 M105.1,118.2h13.1v-13.1h-13.1V118.2z M9.8,118.2h13.1v-13.1H9.8V118.2z M32.7,106.8h62.7V95.4h12.9V32.7h-13V21.2H32.7v11.4h-10
		v62.7h10V106.8z M105.1,22.9h13.1V9.8h-13.1V22.9z M9.8,22.9h13.1V9.8H9.8V22.9z"/>
	<path id="shutdown_1_" class="st1" d="M86,14.1v17.1C99.2,39,107.7,53.4,107.7,69c0,24.1-19.6,43.7-43.7,43.7S20.3,93,20.3,68.9
		c0-15.9,8.4-30.1,21.7-37.8V14C19.8,22.9,4.9,44.9,4.9,68.9C4.9,101.5,31.4,128,64,128s59.1-26.5,59.1-59.1
		C123.1,44.9,108.2,23,86,14.1z M64,0c-4.2,0-7.7,3.4-7.7,7.7v47.7c0,4.2,3.5,7.7,7.7,7.7s7.7-3.5,7.7-7.7V7.7C71.7,3.4,68.2,0,64,0
		z"/>
	<path id="shop_1_" class="st1" d="M124.3,38.2l-18-17.2h-1V9.8H23.4v11.3h-0.5L4,38c-3.7,3.3-5,8.5-3.2,13.2
		c1.6,4.2,5.4,7.1,9.8,7.6v52.8H7v6.6h113.9v-6.6h-4.6V58.9c4.9-0.1,9-3,10.8-7.5C129,46.7,127.9,41.7,124.3,38.2z M88,27.6
		l14.2,24.8H88.5l-7.3-24.8C81.2,27.6,88,27.6,88,27.6z M66.7,27.6h7.6l7.3,24.8H66.7V27.6z M60.2,27.6v24.8H44l7.3-24.8
		C51.3,27.6,60.2,27.6,60.2,27.6z M44.5,27.6l-7.3,24.8H23.4l14.2-24.8C37.6,27.6,44.5,27.6,44.5,27.6z M6.9,48.9
		c-0.7-1.7-0.6-4.2,1.5-6l17-15.2h4.7L15.9,52.4H12C9.3,52.4,7.6,50.6,6.9,48.9z M79.1,111.7H46V69.5h33.1V111.7z M121,48.9
		c-0.9,2.2-2.8,3.4-5.1,3.4h-6.2L95.5,27.6h8.1L119.7,43C121.4,44.6,121.9,46.8,121,48.9z"/>
	<path id="fav_1_" class="st1" d="M128,42.6c0,28.5-64,78.7-64,78.7S0,73.6,0,42.6C0,20.1,16.1,6.7,35.9,6.7
		C47.3,6.7,57.4,12,64,20.3C70.6,12,80.7,6.7,92.1,6.7C112,6.7,128,22.3,128,42.6z"/>
	<path id="brush_1_" class="st1" d="M45.6,90.2l-10-10c0,0,19.4-32.3,50.9-55.9s41.1-31.4,34.3-16.7C114,22.2,88.9,55.5,69.5,71.3
		S45.6,90.2,45.6,90.2z M5.3,128c0,0,2-4.8,20.1-13.4s18.1-22.2,18.1-22.2l-10-10c0,0-1.7-0.9-14.3,8.1C2.7,101.9,5.3,128,5.3,128z"
		/>
	<path id="monitor_1_" class="st1" d="M123.5,0H4.5C2.2,0,0.3,1.9,0.3,4.2v99.6c0,2.3,1.9,4.1,4.1,4.1h51.8v10H30.9V128h66.3v-10.1
		H73.9v-10h49.7c2.3,0,4.1-1.9,4.1-4.1V4.2C127.7,1.9,125.8,0,123.5,0z M111.5,101.1c-2.3,0-4.1-1.9-4.1-4.1c0-2.3,1.9-4.1,4.1-4.1
		c2.3,0,4.1,1.9,4.1,4.1S113.7,101.1,111.5,101.1z M121.4,84H6.6V7.4h114.8V84z"/>
</g>
<g id="row8" class="st0">
	<path id="box_1_" class="st1" d="M128,31.4H0V12.5h128V31.4z M120.4,35.7v79.8H7.6V35.7H120.4z M84.1,51.9H43.7V68h40.4
		C84.1,68,84.1,51.9,84.1,51.9z"/>
	<path id="prohibition_1_" class="st1" d="M64,0C28.7,0,0,28.7,0,64s28.7,64,64,64s64-28.7,64-64S99.3,0,64,0z M64,14.2
		c11.2,0,21.5,3.7,29.8,9.9L24.2,93.8C18,85.5,14.3,75.2,14.3,64C14.2,36.6,36.6,14.2,64,14.2z M64,113.8c-11.2,0-21.5-3.7-29.8-9.9
		l69.6-69.6c6.2,8.3,9.9,18.6,9.9,29.8C113.8,91.4,91.4,113.8,64,113.8z"/>
	<path id="Erase_1_" class="st1" d="M83.4,4.4L2.1,85.8l29.6,29.6h30L128,48.9L83.4,4.4z M59.2,109.5H34L10.3,85.8l25.5-25.5
		l36.3,36.3L59.2,109.5z M65,123.6H0v-5.9h65V123.6z"/>
	<path id="edit_1_" class="st1" d="M94.8,10.8H48.1V61h6.5V17.4H92l0.5,0.5v29.4H121l0.4,0.4v63H54.6v-2.3h-6.5v8.8H128V45
		L94.8,10.8z M61,77.7L22.7,49.3c-3-2.3-6.8-3.2-10.6-2.6S5,49.3,2.7,52.3c-4.7,6.3-3.3,15.3,3,20L44,100.8l28.4,3.3L61,77.7z
		 M13.9,74l12.9-17.5L57,79L44.1,96.5L13.9,74z M59.1,81.9l7.8,18l-19.4-2.2L59.1,81.9z M43.4,89.7L21.3,73.3l1.8-2.5l22.1,16.4
		L43.4,89.7z M48.3,83.1L26.2,66.7l1.8-2.5l22.1,16.4L48.3,83.1z"/>
	<path id="video_1_" class="st1" d="M1.4,5.1v88.2c0,2.8,2.3,5,5,5h116.1c2.8,0,5-2.3,5-5V5.1c0-2.8-2.3-5-5-5H6.4
		C3.7,0,1.4,2.3,1.4,5.1z M87.8,54.7L52.9,73.5c-3.4,1.8-7.4-0.6-7.4-4.4V31.5c0-3.8,4.1-6.3,7.4-4.4l34.9,18.8
		C91.4,47.7,91.4,52.8,87.8,54.7z M64.4,116.2c0,2.7,0.6,5.2,1.7,7.5H6.6c-3.4,0-6.2-2.8-6.2-6.2c0-1.7,0.7-3.3,1.8-4.4
		s2.7-1.8,4.4-1.8h58.5C64.6,112.8,64.4,114.5,64.4,116.2z M126.6,117.4c0,1.7-0.7,3.3-1.8,4.4c-1.1,1.1-2.7,1.8-4.4,1.8h-23
		c1.1-2.3,1.7-4.8,1.7-7.5c0-1.7-0.3-3.4-0.7-5h22C123.8,111.2,126.6,114,126.6,117.4z M93.6,116.2c0,1.8-0.4,3.5-1.2,5.1
		c-0.6,1.2-1.4,2.3-2.3,3.3c-2.1,2.1-5.1,3.5-8.3,3.5c-3.2,0-6.2-1.3-8.3-3.5c-0.9-0.9-1.7-2.1-2.3-3.3c-0.7-1.5-1.2-3.3-1.2-5.1
		c0-1.2,0.2-2.3,0.5-3.4c0.6-1.9,1.6-3.6,3-5c2.1-2.1,5.1-3.5,8.3-3.5c5.3,0,9.8,3.6,11.3,8.4C93.4,113.9,93.6,115,93.6,116.2z"/>
	<path id="compass_1_" class="st1" d="M64,128C28.7,128,0,99.3,0,64S28.7,0,64,0s64,28.7,64,64S99.3,128,64,128z M64,12.1
		c-28.6,0-51.9,23.3-51.9,51.9s23.3,51.9,51.9,51.9s51.9-23.3,51.9-51.9S92.6,12.1,64,12.1z M67.7,73.8c-3.7,1.4-8.1,0.6-11.1-2.4
		s-3.8-7.4-2.4-11.1l-2.8-2.8L33.6,95.8l36.9-19.3L67.7,73.8z M94.4,32.2L57.5,51.4l2.8,2.8c3.7-1.4,8.1-0.6,11.1,2.4
		s3.8,7.4,2.4,11.1l2.8,2.8L94.4,32.2z M68.8,68.8c-0.7,0.7-1.5,1.2-2.4,1.5c-2.4,0.9-5.3,0.4-7.2-1.5s-2.5-4.8-1.5-7.2
		c0.3-0.9,0.8-1.7,1.5-2.4s1.5-1.2,2.4-1.5c2.4-0.9,5.3-0.4,7.2,1.5c2,2,2.5,4.8,1.5,7.2C70,67.3,69.5,68.1,68.8,68.8z"/>
	<path id="sms_1_" class="st1" d="M64,8.7C28.7,8.7,0,29,0,54c0,13.8,8.7,26.2,22.6,34.5c-3.3,7.4-8.2,17.7-12.6,24.4
		c-2,3,0.6,7,4.1,6.4c8.2-1.5,25.4-7.7,41.4-20.4c2.8,0.3,5.6,0.4,8.5,0.4c35.3,0,64-20.3,64-45.2C128,29,99.3,8.7,64,8.7z
		 M45.3,64.8c-1.9,1.6-4.6,2.4-8,2.4c-3.5,0-6.3-0.8-8.3-2.4s-3-3.8-3-6.6h5.3c0.2,1.2,0.5,2.1,1,2.7c0.9,1.1,2.5,1.7,4.8,1.7
		c1.3,0,2.4-0.2,3.3-0.5c1.6-0.5,2.4-1.6,2.4-3.1c0-0.9-0.4-1.6-1.2-2.1s-2-0.9-3.7-1.3L35,55.2c-2.8-0.6-4.8-1.3-5.9-2.1
		c-1.8-1.2-2.7-3.1-2.7-5.8c0-2.4,0.9-4.4,2.6-6c1.8-1.6,4.4-2.4,7.8-2.4c2.8,0,5.3,0.8,7.3,2.2c2,1.5,3.1,3.7,3.2,6.5h-5.4
		c-0.1-1.6-0.8-2.8-2.2-3.4c-0.9-0.4-2-0.7-3.3-0.7c-1.5,0-2.6,0.3-3.5,0.9c-0.9,0.6-1.3,1.4-1.3,2.4s0.4,1.7,1.3,2.1
		c0.6,0.3,1.8,0.7,3.6,1.1l4.7,1.1c2.1,0.5,3.6,1.1,4.6,1.9c1.6,1.3,2.4,3.1,2.4,5.5C48.1,61.2,47.2,63.2,45.3,64.8z M77.8,66.5
		h-5.2V46.3c0-0.9,0-1.7,0-2.2l-5.1,22.4h-5.4l-5-22.4c0,0.5,0,1.2,0,2.2c0,0.9,0,1.7,0,2.2v18.1h-5.2V39.8H60l4.9,21l4.8-21h8
		L77.8,66.5L77.8,66.5z M101,64.8c-1.9,1.6-4.6,2.4-8,2.4c-3.5,0-6.3-0.8-8.3-2.4s-3-3.8-3-6.6H87c0.2,1.2,0.5,2.1,1,2.7
		c0.9,1.1,2.5,1.7,4.8,1.7c1.3,0,2.4-0.2,3.3-0.5c1.6-0.5,2.4-1.6,2.4-3.1c0-0.9-0.4-1.6-1.2-2.1c-0.8-0.5-2-0.9-3.7-1.3L90.7,55
		c-2.8-0.6-4.8-1.3-5.9-2.1c-1.8-1.2-2.7-3.1-2.7-5.8c0-2.4,0.9-4.4,2.6-6c1.8-1.6,4.4-2.4,7.8-2.4c2.8,0,5.3,0.8,7.3,2.2
		c2,1.5,3.1,3.7,3.2,6.5h-5.4c-0.1-1.6-0.8-2.8-2.2-3.4c-0.9-0.4-2-0.7-3.3-0.7c-1.5,0-2.6,0.3-3.5,0.9c-0.9,0.6-1.3,1.4-1.3,2.4
		s0.4,1.7,1.3,2.1c0.6,0.3,1.8,0.7,3.6,1.1l4.7,1.1c2.1,0.5,3.6,1.1,4.6,1.9c1.6,1.3,2.4,3.1,2.4,5.5
		C103.9,61.2,102.9,63.2,101,64.8z"/>
	<path id="music_1_" class="st1" d="M105.9,115.1c-12.9,4.1-25.8-0.2-28.8-9.7s5-20.5,17.8-24.6c6.3-2,12.5-2,17.6-0.5V27.9
		l-61.4,7.7v67c0,9.5-5.5,19.8-18.1,23.8c-12.9,4.1-25.8-0.2-28.8-9.7s5-20.5,17.8-24.6c6.3-2,12.5-2,17.6-0.5V11.3L124.4,0
		L124,91.3C124,102.6,118.5,111.1,105.9,115.1z"/>
	<path id="rescue_1_" class="st1" d="M64,0C28.7,0,0,28.7,0,64s28.7,64,64,64s64-28.7,64-64S99.3,0,64,0z M112,36.2l-20.2,12
		C86.3,38.5,75.9,32,64,32V8.5C84.5,8.5,102.4,19.7,112,36.2z M16.6,92.8C11.5,84.4,8.5,74.6,8.5,64c0-10.3,2.8-20,7.8-28.2
		l19.9,12.4C33.5,52.9,32,58.3,32,64c0,5.9,1.6,11.4,4.4,16.1L16.6,92.8z M40.5,64C40.5,51.1,51,40.5,64,40.5S87.5,51.1,87.5,64
		S76.9,87.5,64,87.5S40.5,76.9,40.5,64z M64,119.5h-0.3L63.4,96c0.2,0,0.4,0,0.6,0c11.7,0,22-6.3,27.6-15.7L112.4,91
		C102.9,108,84.8,119.5,64,119.5z"/>
	<path id="clip_1_" class="st1" d="M36.7,127.8c-9.4,0-18.8-3.6-26-10.7c-13.6-13.6-14.2-35.3-2-49.7l-0.1-0.1l2-2
		c0.1-0.1,0.1-0.1,0.2-0.2L67.5,8.3C72.8,3,79.8,0.1,87.3,0.1s14.5,2.9,19.8,8.2c10.9,10.9,10.9,28.6,0,39.5l-55.5,55.5l-0.2-0.2
		c-6.9,4.8-16.4,4.1-22.6-2c-6.9-6.9-6.9-18.1,0-25l49.4-49.4l6.8,6.8L35.7,83c-3.1,3.1-3.1,8.2,0,11.3c3.1,3.1,8.2,3.1,11.3,0
		L100.2,41c7.1-7.1,7.1-18.7,0-25.9c-3.4-3.4-8-5.3-12.9-5.3s-9.5,1.9-12.9,5.3l-57,57C7,82.7,7.1,99.7,17.6,110.2
		c10.6,10.6,27.7,10.6,38.3,0L121.2,45l6.8,6.8l-65.3,65.3C55.6,124.2,46.1,127.8,36.7,127.8z"/>
</g>
<g id="row7_1_">
	<polygon id="delete_2_" class="st2" points="82.4,64.3 127.5,109.3 108.8,128 63.7,82.9 19.2,127.4 0.5,108.8 45.1,64.3 0,19.2 
		18.7,0.6 63.7,45.6 109.3,0 128,18.7 	"/>
	<polygon id="right_1_" class="st3" points="128,29.2 44.6,112.5 0,68 13.8,54.2 44.6,85.1 114.3,15.5 	"/>
	<path id="Help" class="st3" d="M64,12.5c-28.4,0-51.5,23-51.5,51.5s23,51.5,51.5,51.5s51.5-23,51.5-51.5S92.4,12.5,64,12.5z
		 M69.9,90.4H58.7V79.6h11.2V90.4z M80.5,58.9c-0.9,1.3-2.7,3.1-5.4,5.1l-2.6,2.1c-1.4,1.1-2.4,2.4-2.9,3.9c-0.3,1-0.5,2.4-0.5,4.4
		H59c0.1-4.2,0.6-7.1,1.2-8.7c0.6-1.6,2.3-3.4,5-5.6l2.7-2.1c0.9-0.7,1.6-1.4,2.1-2.2c1-1.4,1.5-2.9,1.5-4.5c0-1.9-0.6-3.6-1.7-5.2
		c-1.1-1.6-3.1-2.3-6-2.3s-4.9,1-6.1,2.9c-1.2,1.9-1.8,3.9-1.8,6H45c0.3-7.1,2.8-12.1,7.4-15.1c2.9-1.9,6.6-2.9,10.9-2.9
		c5.6,0,10.3,1.4,14,4c3.7,2.7,5.6,6.7,5.6,12C83,54,82.2,56.7,80.5,58.9z M64,128C28.7,128,0,99.3,0,64S28.7,0,64,0s64,28.7,64,64
		S99.3,128,64,128z M64,6.4C32.2,6.4,6.4,32.2,6.4,64s25.8,57.6,57.6,57.6s57.6-25.8,57.6-57.6S95.8,6.4,64,6.4z"/>
	<path id="speech" class="st3" d="M60,72.9c0,7.1,2.4,13.9,6.8,19.4c-0.2,0.1-0.4,0.2-0.6,0.3c0,8.4-8.6,18.2-16.3,18.2
		c-2.6,0-3.3-0.3-5.4-1.7c1.3-1.3,3.9-4,3.9-6.1c0-2.5-1.2-4.1-2.9-5.2c-0.3,0-0.7,0-1,0C19.9,97.9,0,79.6,0,57
		c0-22.7,19.9-41,44.4-41c18.4,0,34.2,10.3,41,25C70.7,45.2,60,57.9,60,72.9z M128,72.9c0,16.4-14.4,29.7-32.2,29.7H95
		c-1.2,0.8-2.1,1.9-2.1,3.8c0,1.5,1.9,3.5,2.8,4.4c-1.5,1-2,1.2-3.9,1.2c-5.6,0-11.9-7.1-11.9-13.2C70.1,93.7,63.5,84,63.5,72.9
		c0-16.4,14.4-29.7,32.3-29.7C113.6,43.2,128,56.5,128,72.9z M87,72.4c0-2.9-2.3-5.2-5.2-5.2s-5.2,2.3-5.2,5.2s2.3,5.2,5.2,5.2
		S87,75.2,87,72.4z M103,72.4c0-2.9-2.3-5.2-5.2-5.2s-5.2,2.3-5.2,5.2s2.3,5.2,5.2,5.2S103,75.2,103,72.4z M118.9,72.4
		c0-2.9-2.3-5.2-5.2-5.2s-5.2,2.3-5.2,5.2s2.3,5.2,5.2,5.2S118.9,75.2,118.9,72.4z"/>
	<path id="message" class="st3" d="M123.1,26.1C123.1,11.7,111.4,0,97,0C86.6,0,77.5,6.2,73.4,15.1c-4.7-1.2-9.6-1.9-14.7-1.9
		C29,13.2,4.9,35.4,4.9,62.8s24.1,49.5,53.8,49.5c0.4,0,0.8,0,1.2,0c2,1.3,3.5,3.3,3.5,6.3c0,2.5-3.1,5.8-4.7,7.4
		c2.6,1.7,3.4,2,6.6,2c9.3,0,19.8-11.9,19.8-22c16.4-8.5,27.5-24.7,27.5-43.2c0-5-0.8-9.7-2.3-14.2C117.9,44,123.1,35.7,123.1,26.1z
		 M107.8,42.5c-3.1,2-6.8,3.2-10.7,3.2c-10.8,0-19.7-8.8-19.7-19.7c0-3.2,0.8-6.3,2.2-9l0,0C82.9,10.8,89.5,6.4,97,6.4
		c10.8,0,19.7,8.8,19.7,19.7C116.7,32.9,113.1,39,107.8,42.5z M100.7,33.9h-3.5V20.7c-1.3,1.2-2.8,2.1-4.6,2.7v-3.2
		c0.9-0.3,1.9-0.9,3-1.7c1.1-0.8,1.8-1.8,2.2-2.9h2.9V33.9z"/>
	<path id="loudspeaker" class="st3" d="M122.2,9h5.8v87.7h-5.8V9z M119.6,11.9L63.3,31.4v43.2L119.6,94V11.9z M17.5,31.4v7.5h-2.4
		c-4.1,0-7.9,1.7-10.7,4.4C1.7,46,0,49.8,0,53.9C0,62.2,6.8,69,15.1,69h2.4v5.5h10.9l9.2,44.5h18.2V74.5H60V31.4H17.5z"/>
	<path id="alert_1_" class="st3" d="M87.3,24.8H8.8c-1.2,0-2.3,0.2-3.3,0.7l42.8,26.7L94,27.8C92.2,25.9,89.9,24.8,87.3,24.8z
		 M105.4,58c-3.3,0-6.5,0.7-9.3,2V34L47.9,59.7L0.7,30.3c-0.4,1-0.7,2.1-0.7,3.3v41.7C0,80.1,3.9,84,8.8,84H83
		c1.7,10.8,11,19.1,22.4,19.1c12.5,0,22.6-10.1,22.6-22.6C128,68.1,117.9,58,105.4,58z M103.1,70.2c0-1.3,1.1-2.3,2.3-2.3
		c0.6,0,1.2,0.3,1.7,0.7c0.4,0.4,0.7,1,0.7,1.7v11c0,1.3-1.1,2.3-2.3,2.3c-1.3,0-2.3-1.1-2.3-2.3L103.1,70.2L103.1,70.2z
		 M105.4,92.2c-1.8,0-3.2-1.4-3.2-3.2c0-1.8,1.4-3.2,3.2-3.2c1.8,0,3.2,1.4,3.2,3.2C108.5,90.7,107.1,92.2,105.4,92.2z"/>
	<path id="alert" class="st3" d="M126.5,104.7L73.4,12.5c-4.1-7.2-14.6-7.2-18.7,0L1.5,104.7c-4.2,7.2,1,16.2,9.4,16.2h106.4
		C125.5,120.9,130.7,111.8,126.5,104.7z M57,44.1c0-3.8,3.1-7,7-7c1.9,0,3.7,0.8,4.9,2.1c1.3,1.3,2.1,3,2.1,4.9v25.6
		c0,3.8-3.1,7-7,7s-7-3.1-7-7V44.1z M64,97.9c-4.4,0-7.9-3.5-7.9-7.9s3.5-7.9,7.9-7.9s7.9,3.5,7.9,7.9C71.9,94.3,68.4,97.9,64,97.9z
		"/>
	<path id="cake" class="st3" d="M128,52.3v27.9c-2.5,1.8-5.6,2.8-8.8,2.8c-5.9,0-11.3-3.4-13.9-8.6c0-0.1,0-0.1,0.1-0.1h-6.2
		c0,0.1,0,0.1,0.1,0.1c-2.6,5.2-8,8.6-13.9,8.6c-6,0-11.4-3.5-13.9-8.8H64c-2.5,5.3-8,8.8-14,8.8s-11.4-3.5-13.9-8.8h-7.4
		c-2.5,5.3-8,8.8-13.9,8.8s-11.4-3.5-14-8.8H0V52.3h9.1V28.5h13.2v23.8h19V28.5h13.2v23.8h19V28.5h13.2v23.8h19V28.5h13.2v23.8H128z
		 M102.3,80.2c-3.9,5.2-10.2,8.5-17,8.5c-7.2,0-13.8-3.7-17.6-9.5C63.8,85,57.2,88.7,50,88.7S36.2,85,32.4,79.2
		C28.6,85,22,88.7,14.8,88.7c-5.6,0-10.9-2.3-14.8-6v33.9c0,4.7,3.8,8.5,8.5,8.5h111.1c4.7,0,8.5-3.8,8.5-8.5V86.7
		c-2.7,1.3-5.7,2-8.8,2C112.4,88.7,106.1,85.4,102.3,80.2z M22.8,18.7c0,6.2-3.2,6.5-7,6.5c-3.9,0-7.1-0.4-7.1-6.5
		s7.1-15.8,7.1-15.8S22.8,12.5,22.8,18.7z M54.9,18.7c0,6.2-3.1,6.5-7,6.5s-7.1-0.4-7.1-6.5s7.1-15.8,7.1-15.8S54.9,12.5,54.9,18.7z
		 M87.1,18.7c0,6.2-3.2,6.5-7.1,6.5s-7-0.4-7-6.5s7-15.8,7-15.8S87.1,12.5,87.1,18.7z M119.3,18.7c0,6.2-3.2,6.5-7.1,6.5
		s-7-0.4-7-6.5s7-15.8,7-15.8S119.3,12.5,119.3,18.7z"/>
	<path id="Eye" class="st3" d="M64,32.5C28.7,32.5,0,64,0,64s28.7,31.5,64,31.5S128,64,128,64S99.3,32.5,64,32.5z M64,84
		c-11,0-20-9-20-20s9-20,20-20s20,9,20,20S75,84,64,84z"/>
</g>
<g id="row6" class="st0">
	<path id="size_1_" class="st1" d="M128,127.6H86.5v-11.1h30.4V86.3H128V127.6z M41.5,127.6H0V86.3h11.1v30.2h30.4V127.6z
		 M105.6,105.4H22.4V22.6h83.3v82.8H105.6z M33.4,94.3h61.1V33.7H33.4V94.3z M128,41.7h-11.1V11.5H86.5V0.4H128V41.7z M11.1,41.7H0
		V0.4h41.5v11.1H11.1V41.7z"/>
	<path id="creditcard_1_" class="st1" d="M0,19.6v88.8h128V19.6H0z M7,26.6h114v14.8H7V26.6z M121,101.4H7V57.7h114V101.4z
		 M112.9,79.5c0,6.2-5,11.3-11.3,11.3c-3,0-5.7-1.2-7.7-3.1c-2,1.9-4.7,3.1-7.8,3.1c-6.2,0-11.3-5-11.3-11.3c0-6.2,5-11.3,11.3-11.3
		c3,0,5.7,1.2,7.8,3.1c2-1.9,4.7-3.1,7.7-3.1C107.9,68.2,112.9,73.3,112.9,79.5z"/>
	<path id="folder_1_" class="st1" d="M128,24.9v84.4c0,5-4,9-9,9H0v-95h28.6l9,15.1h79.2v73.8l0,0c2.5,0,4.5-2,4.5-4.5V33.8H42.1
		l-9-15.1H9v-9h28.6l9,15.1H128V24.9z"/>
	<path id="waiting_1_" class="st1" d="M113.2,17.8V11h8.6V0H6.2v11H16v6.8c0,12.9,5.1,27.9,14.3,37c3.4,3.4,7.2,6.2,11.3,8.4
		c-17,7.9-28.4,25.2-28.4,44.2v9.6h-7v11h115.6v-11h-11.5v-9.6c0-12.9-5.1-25.1-14.3-34.3c-3.4-3.4-7.2-6.2-11.3-8.5
		C101.8,56.9,113.2,36.7,113.2,17.8z M79.1,58.1l-2.6,1v10.7l2.4,1.1c4.3,2,8.1,4.7,11.5,8c7.6,7.6,11.8,17.7,11.8,28.5v9.6H95
		c-0.1-1.4-0.3-5.5-0.3-7C94.6,83.9,64,72.2,64,72.2S29.8,81.4,29.8,110c0,1.4-0.2,5.6-0.3,7h-8.1v-9.6c0-17.5,11.7-33.3,28.4-38.5
		l2.9-0.9v-8.9l-2.7-1c-5.2-2-9.9-5-14-9.1c-7.6-7.6-11.8-20.5-11.8-31.2V11h80.7v6.8C104.9,34.3,94.5,52.2,79.1,58.1z M93.7,33.1
		c0,12.7-24,24.9-29.3,24.9S37.2,45.9,37.2,33.1H93.7z"/>
	<path id="Share_4_" class="st1" d="M128,105.9c0,11-8.9,19.9-19.8,19.9c-11,0-19.9-8.9-19.9-19.9c0-0.5,0-1.1,0.1-1.6L34.2,80
		c-3.6,3.8-8.7,6.1-14.3,6.1C8.9,86.1,0,77.2,0,66.2s8.9-19.8,19.8-19.8c5.4,0,10.2,2.1,13.8,5.6l54.8-27.4
		c-0.1-0.8-0.2-1.6-0.2-2.4c0-11,8.9-19.9,19.9-19.9s19.8,8.9,19.8,19.9S119,42,108.1,42c-5.4,0-10.2-2.1-13.8-5.6L39.6,63.8
		c0.1,0.8,0.2,1.6,0.2,2.4c0,0.6,0,1.1-0.1,1.6l54.2,24.4c3.6-3.8,8.7-6.1,14.3-6.1C119.1,86.1,128,94.9,128,105.9z"/>
	<path id="phone_2_" class="st1" d="M26.9,7.2C21.7,11.1,6.8,32.5,34.7,81c29.4,51.1,57.4,48.9,63,45.5L77.8,93
		c-4.7,2.8-12.6,2.1-19.9-7.7c-0.1-0.1-14.2-23.8-14.3-24.1c-2.9-6.4-1.3-16.8,3.6-19.7L26.9,7.2z M109.8,119.4L89.9,85.8l-9.5,5.6
		l19.9,33.6L109.8,119.4z M59.4,34.3L39,0l-9.5,5.6l20.3,34.3C49.9,39.9,59.4,34.4,59.4,34.3L59.4,34.3z"/>
	<path id="Tools_2_" class="st1" d="M101.1,84.3L48.3,31.5c2.8-8.3,0.9-17.9-5.8-24.5c-6.6-6.6-16-8.5-24.3-5.8l17,17L19.9,33.6
		l-17-17c-2.7,8.3-0.8,17.7,5.8,24.3c5.9,5.9,14,8,21.6,6.5l53.9,53.9c-1.5,7.1,0.5,14.8,6,20.3c8.6,8.6,22.6,8.6,31.2,0
		s8.6-22.6,0-31.2C115.9,84.8,108.2,82.8,101.1,84.3z M112.4,112.5c-3.6,3.6-9.5,3.7-13.2,0c-3.6-3.6-3.6-9.5,0-13.2
		c3.6-3.6,9.5-3.6,13.2,0C116,103,116,108.9,112.4,112.5z M96.3,13.6l-2.8,11.5L71.1,47.5l9.5,9.5l22.7-22.7l11.1-2.7l11.9-20.9
		l-9-9L96.3,13.6z M36.2,69.9L3.9,102.2c-5,5-5,13.1,0,18.1l3.7,3.7c5,5,13.1,5,18.1,0l31.9-31.9c3.2,1.8,7.1,1.6,10.1-0.5
		L37.3,61.2C35.5,63.8,35.1,67,36.2,69.9z M47,90.1l-25.2,25.2c-1.2,1.2-3.3,1.2-4.5,0l-3.7-3.7c-1.2-1.2-1.2-3.3,0-4.5l25.2-25.2
		L47,90.1z"/>
	<path id="Download_2_" class="st1" d="M128,121.8H0v-12.7h128V121.8z M81.2,50.6V6.2H46.8v44.4H18.4L64,103.7l45.6-53.1H81.2z"/>
	<path id="Share_1_" class="st1" d="M102.1,128c0,0,5.2-44.9-15-69C78,48.1,53.7,47.8,53.7,47.8v27.6L12.4,37.7L53.8,0v22.8
		c0,0,30.7-2.9,46.2,12.9C133.7,70,102.1,128,102.1,128z"/>
	<path id="Protect_2_" class="st1" d="M126.3,27.1c0,55.7-41,100.9-62.3,100.9S1.7,82.8,1.7,27.1c0-3.4,0.1-6.7,0.3-10
		c6.3,3.5,13.5,5.5,21.2,5.5C39.6,22.6,54,13.5,61.8,0c7.7,13.5,22.1,22.6,38.6,22.6c9.5,0,18.2-3,25.5-8.2
		C126.2,18.6,126.3,22.8,126.3,27.1z"/>
</g>
<g id="row5" class="st0">
	<path id="Send_1_" class="st1" d="M113.9,89.2h-75L53,38.8h75L113.9,89.2z M45.2,84.4h65.1l11.4-40.9H56.6L45.2,84.4z M82.2,71.1
		c0.6-0.1,2.2-0.3,34.9-20.5l-2.5-4.1C103.6,53.3,86,64,81.9,66.1c-2.9-2-12.5-11-20.9-19.3l-3.4,3.4c19.5,19.2,22.7,20.9,24.1,20.9
		C82,71.2,82.1,71.2,82.2,71.1z M47,44.6H23.5v4.8H47V44.6z M43.4,56.3H13.1v4.8h30.3V56.3z M39.8,68H0v4.8h39.8V68z"/>
	<path id="logout_2_" class="st1" d="M128,0.5v127H42.2v-21.8h10.9v10.8H76V34.7l37.5-23.3H53.1v21.4H42.2V0.5H128z M64.2,70.4
		L31.5,44.8v18.7H0v14h31.5V96L64.2,70.4z"/>
	<path id="delete_x5F_doc_2_" class="st1" d="M62,114.6H13.6V0h96.6v78.2h-7.7V7.7H21.4v99.2H62V114.6z M62.3,82.7H30.7v5.2h31.6
		C62.3,87.9,62.3,82.7,62.3,82.7z M93.2,67.2H30.7v5.2h62.5V67.2z M93.2,51.8H30.7V57h62.5V51.8z M93.2,36.3H30.7v5.2h62.5V36.3z
		 M93.2,20.8H30.7V26h62.5V20.8z M114.4,118.9l-13.7-13.7l13.7-13.7l-9.1-9.1L91.6,96.1L77.9,82.4l-9.1,9.1l13.7,13.7l-13.7,13.7
		l9.1,9.1l13.7-13.7l13.7,13.7L114.4,118.9z"/>
	<path id="AddUser_2_" class="st1" d="M80.6,68.9v8.5L91.5,85c-9.6,3.6-16.4,12.8-16.4,23.6c0,1.9,0.2,3.7,0.6,5.4
		c-4.8,0.6-9.8,1-14.7,1c-18.6,0-38.5-5.1-49.5-8.5c-3.6-1.1-4.2-5.8-1.2-7.9l31-21.2v-9.5c-2.9-3.2-5.2-7.2-6.9-11.5
		c-2.5-0.1-5.3-4-6.4-9.3c-1.2-5.6-0.1-10.7,2.6-11.2c0.2,0,0.4,0,0.6,0C32.4,15.8,45.5,0,61.4,0s29,15.8,30.2,35.9
		c0.3,0,0.6,0,0.9,0c2.6,0.5,3.8,5.6,2.6,11.2c-1.2,5.5-4.1,9.5-6.6,9.3C86.5,61.2,83.8,65.5,80.6,68.9z M119.7,108.6
		c0,10.7-8.7,19.4-19.4,19.4c-9.3,0-17-6.5-18.9-15.2c-0.3-1.3-0.5-2.7-0.5-4.2c0-8.3,5.2-15.4,12.6-18.1c2.1-0.8,4.4-1.2,6.7-1.2
		C111,89.3,119.7,98,119.7,108.6z M110.6,106.1h-7.4v-7.4H98v7.4h-7.4v5.2H98v7.4h5.2v-7.4h7.4V106.1z"/>
	<path id="Bookmark_2_" class="st1" d="M17.7,0v122.2l-5.5,5.8V0H17.7z M23.8,0v115.8L64,73.5l39,41V0H23.8z M109.1,0v120.9l6.7,7.1
		V0H109.1z"/>
	<path id="Send_2_" class="st1" d="M0,72.6l34.4,12.8l23,38.9l9.9-25l41,17.6L128,3.7L0,72.6z M63.6,90.1l-7.3,18.6L40.5,82.2
		l78.7-64.7L63.6,90.1z"/>
	<path id="Pen_2_" class="st1" d="M10.9,97.5l19.6,19.6L0,128L10.9,97.5z M16.1,90.5l21.4,21.4l73.2-73.1L89.3,17.4L16.1,90.5z
		 M126.4,15.4L112.6,1.6c-2.1-2.1-5.5-2.1-7.5,0l-9.7,9.7l21.4,21.4l9.7-9.7C128.5,20.9,128.5,17.5,126.4,15.4z"/>
	<path id="bin_2_" class="st1" d="M36.9,27c0.1,0.6,0.4,0.5,1,0H36.9z M90.1,27c0.5,0.5,0.9,0.6,1,0H90.1z M36.9,27
		c0.1,0.6,0.4,0.5,1,0H36.9z M90.1,27c0.5,0.5,0.9,0.6,1,0H90.1z M90.1,27c0.5,0.5,0.9,0.6,1,0H90.1z M36.9,27c0.1,0.6,0.4,0.5,1,0
		H36.9z M31.4,56.8v44.7h5.8V56.8H31.4z M36.9,27c0.1,0.6,0.4,0.5,1,0H36.9z M51,56.8v44.7h5.8V56.8H51z M71.2,56.8v44.7H77V56.8
		H71.2z M90.1,27c0.5,0.5,0.9,0.6,1,0H90.1z M90.9,56.8v44.7h5.8V56.8H90.9z M31.4,56.8v44.7h5.8V56.8H31.4z M51,56.8v44.7h5.8V56.8
		H51z M71.2,56.8v44.7H77V56.8H71.2z M90.9,56.8v44.7h5.8V56.8H90.9z M90.9,56.8v44.7h5.8V56.8H90.9z M71.2,56.8v44.7H77V56.8H71.2z
		 M51,56.8v44.7h5.8V56.8H51z M31.4,56.8v44.7h5.8V56.8H31.4z M36.9,27c0.1,0.6,0.4,0.5,1,0H36.9z M90.1,27c0.5,0.5,0.9,0.6,1,0
		H90.1z M91.1,12.9V6.3c0-3.5-2.8-6.3-6.3-6.3H43.1c-3.5,0-6.3,2.9-6.3,6.3v6.5H0.9v26.6h7.6V115c0,7.1,5.8,13,13,13h85
		c7.1,0,13-5.8,13-13V39.4h7.6V12.9H91.1z M91.1,27c-0.1,0.6-0.4,0.5-1,0H91.1z M37.9,27c-0.5,0.5-0.9,0.6-1,0H37.9z M110.8,115
		c0,2.4-1.9,4.3-4.3,4.3h-85c-2.4,0-4.3-2-4.3-4.3V39.4h93.6V115z"/>
	<path id="Refresh_2_" class="st1" d="M121.3,7.8l-0.8,35.6l-35.6-3L100,26.8c-9.6-9.3-22.6-14.6-36-14.6
		c-28.6,0-51.8,23.2-51.8,51.8H0C0,28.7,28.7,0,64,0c16.9,0,33.2,6.8,45.2,18.6L121.3,7.8z M127.9,61.1l-12.2,0.5
		c0,0.8,0.1,1.6,0.1,2.3c0,28.6-23.3,51.8-51.8,51.8c-13.4,0-26.3-5.2-35.9-14.5l12.3-16.1L4.9,88.9l5.8,35.2l9.9-13
		C32.4,121.9,47.9,128,64,128c35.3,0,64-28.7,64-64C128,63,128,62,127.9,61.1z"/>
	<path id="Random_2_" class="st1" d="M100.1,52.6V39.4h-7.3l-60.7,60.8H0V89.7h27.7l60.8-60.8h11.6V15.7L128,34.1L100.1,52.6z
		 M56.7,51.7L49.2,59l-19-19.6H0V28.9h34.6L56.7,51.7z M128,93.9l-27.9-18.4v13.2h-7.3L72.9,68.8l-7.4,7.4l23,22.9h11.6v13.2
		L128,93.9z"/>
</g>
<g id="row4_1_" class="st0">
	<path id="Upload_2_" class="st1" d="M94,43.8c-0.8,0-1.6,0-2.4,0.1c-5.1-15.4-20.5-25.1-37-22.8C38,23.4,25.2,38.4,25.5,55.3
		c0,1.8,0.2,3.5,0.5,5.2C11.5,62,0,74.3,0,89.3c0,11.7,9.9,17.9,17,17.9h32.9v-6.6H17c-2.7,0-10.4-2.8-10.4-11.3
		C6.6,77,16.6,67,28.9,67h0.3c0.2,0,0.4,0,0.7,0l5.2,0.7l-1.6-5c-0.8-2.3-1.2-4.9-1.2-7.5c-0.2-13.6,10-25.7,23.4-27.6
		c14.1-1.9,27.2,6.9,30.5,20.6l0.7,3.1l3.1-0.6c1.3-0.2,2.7-0.4,4.2-0.4c15.1,0,27.4,12.3,27.4,27.4c0,8.8-4.2,17-11.3,22.1
		c-0.6,0.4-1.3,0.7-2,0.7H78.1v6.6H108c2.1,0,4.1-0.7,5.9-1.9c8.8-6.4,14.1-16.6,14.1-27.5C128,59,112.7,43.8,94,43.8z M82.7,80.3
		h-10v26.5H55.3V80.3h-10L64,62L82.7,80.3z"/>
	<path id="User_2_" class="st1" d="M119.6,109.1c3.3,2.3,2.6,7.4-1.2,8.7c-11.6,4-32.8,10.2-53.6,10.2c-20.7,0-42.9-5.7-55.1-9.5
		c-3.9-1.2-4.7-6.4-1.3-8.8l34.5-23.6V75.6c-3.2-3.6-5.8-8-7.7-12.8c-2.8,0-5.9-4.4-7.1-10.3c-1.3-6.3,0-11.9,2.9-12.5
		c0.2,0,0.4,0,0.7,0C33,17.6,47.6,0,65.3,0s32.2,17.6,33.5,39.9c0.3,0,0.6,0,1,0c2.9,0.6,4.2,6.2,2.9,12.5
		c-1.3,6.1-4.5,10.6-7.4,10.3c-2.1,5.4-5.1,10.1-8.7,13.9V86L119.6,109.1z"/>
	<path id="keyboard_1_" class="st1" d="M28,52c0.7-2.1,2.2-4.8,5.1-7c5.5-4.1,14.6-4.8,26.2-2.2c46.3,10.7,57.7-16.1,60-24.6
		l-5.8-1.6c-2.6,9.2-12.9,29.6-52.9,20.4c-13.6-3.1-24.1-2.1-31.2,3.2c-5,3.7-7,8.6-7.7,11.7H0v59.3h128V52H28z M122,105.4H6V58h116
		V105.4z M29.9,71.7H10v-8.3h19.9V71.7z M45.2,63.4H34.6v8.3h10.6C45.2,71.7,45.2,63.4,45.2,63.4z M59.2,77.5H48.6v8.3h10.6
		C59.2,85.8,59.2,77.5,59.2,77.5z M45.3,77.5H34.7v8.3h10.6C45.3,85.8,45.3,77.5,45.3,77.5z M74.5,77.5H64v8.3h10.6L74.5,77.5
		L74.5,77.5z M92.2,77.5H79.3v8.3h12.9C92.2,85.8,92.2,77.5,92.2,77.5z M62.8,63.4H49.9v8.3h12.9C62.8,71.7,62.8,63.4,62.8,63.4z
		 M80.5,63.4H67.6v8.3h12.9V63.4z M98.1,63.4H85.2v8.3h12.9V63.4z M118.1,63.4h-15.2v8.3h15.2V63.4z M30.6,77.7H10V86h20.6V77.7z
		 M118.1,77.7H95.7V86h22.4V77.7z M20.3,91.6H9.9v9.1h10.5v-9.1H20.3z M34.5,91.6H25v9.1h9.5V91.6z M107.7,100.8h10.5v-9.1h-10.5
		V100.8z M93.5,100.8h9.5v-9.1h-9.5V100.8z M89.5,91.6H38.4v9.1h51.2v-9.1H89.5z"/>
	<path id="ticket_1_" class="st1" d="M112.5,32.3l-2.6,2c-4.6,3.5-11.1,3-15.1-1.1c-4.1-4.1-4.5-10.6-1.1-15.1l2-2.6L80.2,0L0,80.2
		l15.5,15.5l2.6-2c4.6-3.5,11.1-3.1,15.2,1s4.5,10.7,1,15.2l-2,2.6L47.8,128L128,47.8L112.5,32.3z M80.2,10.6l5.8,5.8
		c-3.7,7.2-2.4,16.2,3.5,22.2c5.9,5.9,14.9,7.2,22.2,3.5l5.7,5.8l-13.6,13.6L66.6,24.2L80.2,10.6z M47.8,117.4l-5.7-5.7
		c3.8-7.3,2.6-16.3-3.4-22.3S23.6,82.2,16.4,86l-5.7-5.7L24.8,66L62,103.2L47.8,117.4z M65.5,99.7L28.3,62.5L63,27.8L100.2,65
		L65.5,99.7z"/>
	<path id="pin_1_" class="st1" d="M81.1,82.1l20.8-37.9c0.8-1.4,1.2-2.9,1.4-4.4c6.6,1.1,11.5,0.4,13.1-2.5
		c3.2-5.9-8.1-18.3-25.3-27.8S57.3-2.9,54.1,3c-1.6,2.9,0.4,7.4,4.8,12.4c-1.2,0.9-2.2,2.1-3,3.5L35.1,56.8
		c-10.5-2.2-19.3-1.1-22.7,5.2C7,71.9,19.6,86.1,36.1,96.5l-11.3,27.2c-1.4,3.4,3.2,6,5.4,3L47,102.6C64.6,111,83.4,114,88.8,104
		C92.3,97.7,88.5,89.7,81.1,82.1z M19.7,66c1.5-2.7,12.1-3.3,27.6,3.4l-8,19.3C23.9,78.8,18.2,68.9,19.7,66z M51.9,95.6l12-17.1
		C77.8,88,83,97.3,81.5,100C80,102.8,68.5,103.3,51.9,95.6z"/>
	<path id="printer_1_" class="st1" d="M0,32.6v64.8h12.6v-25h102.8v25H128V32.6H0z M100.6,55.5c-3.2,0-5.8-2.6-5.8-5.8
		s2.6-5.8,5.8-5.8c3.2,0,5.8,2.6,5.8,5.8C106.3,52.9,103.8,55.5,100.6,55.5z M115.2,55.5c-3.2,0-5.8-2.6-5.8-5.8s2.6-5.8,5.8-5.8
		c3.2,0,5.8,2.6,5.8,5.8S118.4,55.5,115.2,55.5z M109.2,124.3H18.8V75.5h7.6v41.2h75V75.5h7.6v48.8H109.2z M109.2,30.2h-7.6V11.3
		h-75v18.9H19V3.7h90.3v26.5H109.2z M94.6,110.1H33.4V105h61.2C94.6,105,94.6,110.1,94.6,110.1z M94.6,99.3H33.4v-5.1h61.2
		C94.6,94.2,94.6,99.3,94.6,99.3z M94.6,87.8H33.4v-5.1h61.2C94.6,82.7,94.6,87.8,94.6,87.8z"/>
	<path id="unlock_2_" class="st1" d="M94.5,11C76,11,60.9,26,60.9,44.5v12H0v52.7c0,4.3,3.5,7.9,7.9,7.9h60.9c4.3,0,7.9-3.5,7.9-7.9
		V56.5h-3.9v-12c0-12,9.8-21.8,21.8-21.8s21.8,9.8,21.8,21.8v10.9H128V44.5C128,26,113,11,94.5,11z M44.4,96.6
		c0,3.4-2.7,6.1-6.1,6.1c-3.3,0-6-2.7-6-6.1V83.8c0-3.3,2.7-6,6-6c1.7,0,3.2,0.7,4.3,1.8c1.1,1.1,1.8,2.6,1.8,4.3V96.6z"/>
	<path id="Dowload_1_" class="st1" d="M94,43.8c-0.8,0-1.6,0-2.4,0.1c-5.1-15.4-20.5-25.1-37-22.8C38,23.4,25.2,38.4,25.5,55.3
		c0,1.8,0.2,3.5,0.5,5.2C11.5,62,0,74.3,0,89.3c0,11.7,9.9,17.9,17,17.9h32.9v-6.6H17c-2.7,0-10.4-2.8-10.4-11.3
		C6.6,77,16.6,67,28.9,67h0.3c0.2,0,0.4,0,0.7,0l5.2,0.7l-1.6-5c-0.8-2.3-1.2-4.9-1.2-7.5c-0.2-13.6,10-25.7,23.4-27.6
		c14.1-1.9,27.2,6.9,30.5,20.6l0.7,3.1l3.1-0.6c1.3-0.2,2.7-0.4,4.2-0.4c15.1,0,27.4,12.3,27.4,27.4c0,8.8-4.2,17-11.3,22.1
		c-0.6,0.4-1.3,0.7-2,0.7H78.1v6.6H108c2.1,0,4.1-0.7,5.9-1.9c8.8-6.4,14.1-16.6,14.1-27.5C128,59,112.7,43.8,94,43.8z M45.3,88.5
		h10V62h17.4v26.5h10L64,106.7L45.3,88.5z"/>
	<path id="right_x5F_doc_1_" class="st1" d="M54,117.7H4.3V0h99.2v80.3h-7.9V7.9H12.3v101.9H54V117.7z M54.3,84.9H21.9v5.3h32.4
		C54.3,90.2,54.3,84.9,54.3,84.9z M86,69H21.9v5.3H86V69z M86,53.2H21.9v5.3H86V53.2z M86,37.3H21.9v5.3H86V37.3z M86,21.4H21.9v5.3
		H86V21.4z M123.7,86.1l-9.4-9.4l-32.6,32.6L70.4,97.9l-9.4,9.4L81.7,128L123.7,86.1z"/>
	<path id="Lock" class="st1" d="M105.5,54.9V40.5C105.5,18.2,87.3,0,65,0S24.5,18.2,24.5,40.5v14.4h-6.7v63.6c0,5.2,4.2,9.5,9.5,9.5
		h73.5c5.2,0,9.5-4.2,9.5-9.5V54.9H105.5z M38.7,40.5C38.7,26,50.5,14.2,65,14.2S91.3,26,91.3,40.5v14.4H38.7V40.5z M71.3,103.3
		c0,4.1-3.3,7.3-7.3,7.3s-7.3-3.3-7.3-7.3V87.9c0-4,3.3-7.3,7.3-7.3c2,0,3.9,0.8,5.2,2.1s2.1,3.2,2.1,5.2
		C71.3,87.9,71.3,103.3,71.3,103.3z"/>
</g>
<g id="row3" class="st0">
	<path id="Link_2_" class="st1" d="M125.1,24l-3.5-4.9c-2.4-3.4-6.1-5.7-10.2-6.3c-4.2-0.7-8.3,0.3-11.7,2.7l-31,22.1
		c-3.4,2.4-5.7,6.1-6.3,10.2c-0.6,3.7,0.1,7.3,1.9,10.5l-5.9,4.2c-2.4-2.8-5.6-4.6-9.3-5.2c-4.2-0.7-8.3,0.3-11.7,2.7L6.5,82.1
		c-3.4,2.4-5.7,6.1-6.3,10.2c-0.7,4.1,0.3,8.3,2.7,11.7l3.5,4.9c2.4,3.4,6.1,5.7,10.2,6.3c0.9,0.2,1.7,0.2,2.6,0.2
		c3.3,0,6.4-1,9.1-2.9l30.9-22.1c3.4-2.4,5.7-6.1,6.3-10.2c0.6-3.7-0.1-7.3-1.9-10.5l5.9-4.2c2.4,2.8,5.6,4.6,9.3,5.2
		c0.9,0.2,1.7,0.2,2.6,0.2c3.3,0,6.4-1,9.1-2.9l30.9-22.1c3.4-2.4,5.7-6.1,6.3-10.2C128.5,31.5,127.5,27.4,125.1,24z M56.8,78.7
		c-0.3,1.8-1.3,3.3-2.7,4.4l-30.9,22.1c-1.5,1-3.2,1.5-5,1.2s-3.3-1.3-4.4-2.7l-3.5-4.9c-1.1-1.4-1.5-3.2-1.2-5s1.3-3.3,2.7-4.4
		l30.9-22.1c1.1-0.8,2.5-1.3,3.9-1.3c0.4,0,0.7,0,1.1,0.1c1.3,0.2,2.5,0.8,3.4,1.6L30.3,82.6l5.2,7.3L56.3,75
		C56.8,76.2,57,77.5,56.8,78.7z M118.9,34.2c-0.3,1.8-1.3,3.3-2.7,4.4L85.3,60.7c-1.4,1-3.2,1.5-5,1.2c-1.3-0.2-2.5-0.8-3.4-1.6
		l20.8-14.9l-5.2-7.3L71.7,53c-0.5-1.1-0.7-2.4-0.4-3.7c0.3-1.8,1.3-3.3,2.7-4.4l30.9-22.1c1.1-0.8,2.5-1.3,3.9-1.3
		c0.4,0,0.7,0,1.1,0.1c1.8,0.3,3.3,1.3,4.4,2.7l3.5,4.9C118.8,30.6,119.2,32.4,118.9,34.2z"/>
	<path id="sitemap_2_" class="st1" d="M38,4.6v45.1h55.7V4.6H38z M88.2,44.1H43.5V19.9h44.7V44.1z M0,90.6v32.8h39.8V90.6H0z
		 M36.2,119.8H3.6v-19.1h32.5v19.1H36.2z M44.1,90.6v32.8h39.8V90.6H44.1z M80.3,119.8H47.7v-19.1h32.5v19.1H80.3z M88.2,90.6v32.8
		H128V90.6H88.2z M124.4,119.8H91.8v-19.1h32.5L124.4,119.8L124.4,119.8z M114.6,65.6v20.9h-5.5V71.2H68.6v15.4h-5.5V71.2H22.7v15.4
		h-5.5v-21h46V53.3h5.5v12.3H114.6z"/>
	<path id="idea_2_" class="st1" d="M46.3,33.7L41.9,31c9-14.8,28.2-19.5,43-10.5l-2.7,4.4C70,17.4,53.8,21.4,46.3,33.7z M57.4,111.5
		c-2.1,1.7-4.1,3.4-6.1,5.2l-36-21.8c0.6-2.7,1.1-5.3,1.6-8L57.4,111.5z M13.3,102.7l32.1,19.4c-0.7,0.7-1.4,1.4-2.1,2.1
		c-3.6,3.7-8.8,4.9-13.2,2.3l-13.4-8.1c-4.4-2.6-5.5-7.8-4.1-12.8C12.8,104.7,13.1,103.7,13.3,102.7z M109.2,71.8
		c-2.9,4.7-6.4,8.8-10.5,12.1l0,0c-3.9,3.2-26.9,16.4-34.8,22.4L18.3,78.8c1.8-11.6,3.2-35.1,3.6-38c0-0.1,0-0.2,0-0.3l0,0
		c0.9-6.1,3-12.1,6.4-17.7C41.8,0.5,70.9-6.7,93.2,6.8C115.6,20.4,122.7,49.5,109.2,71.8z M102.6,67.9c11.3-18.7,5.3-43.1-13.4-54.4
		C70.6,2.1,46.1,8.1,34.8,26.8c-1.9,3.1-3.3,6.4-4.2,9.7c-4.8,16.8,2,35.3,17.6,44.8s35.2,6.8,47.8-5.1
		C98.5,73.7,100.8,70.9,102.6,67.9z"/>
	<path id="favorites_2_" class="st1" d="M70,6.5l16.2,32.8l36.2,5.3c5.5,0.8,7.6,7.5,3.7,11.3L99.8,81.4l6.2,36
		c0.9,5.4-4.8,9.6-9.6,7l-32.3-17l-32.3,17c-4.9,2.6-10.6-1.6-9.6-7l6.2-36L2,55.9C-1.9,52,0.2,45.3,5.7,44.5l36.2-5.3L58,6.5
		C60.5,1.6,67.5,1.6,70,6.5z"/>
	<path id="Map_2_" class="st1" d="M110.7,20.2C98.6,7.4,81.6,0,64,0C47.8,0,32.3,6.1,20.5,17.1C7.5,29.2,0,46.3,0,64
		c0,18.2,7.8,35.7,21.5,47.8C33.2,122.2,48.3,128,64,128c17.2,0,33.4-6.8,45.6-19C121.4,96.8,128,80.9,128,64
		C128,47.7,121.8,32.2,110.7,20.2z M57.4,7.9C51.1,13.7,46,21.7,42.5,31.1c-6.2-2.4-11.6-5.8-15.3-10C35.8,13.8,46.3,9.2,57.4,7.9z
		 M23.6,24.6C27.9,29.3,34,33.2,41,35.9c-2.4,7.8-3.7,16.4-3.9,25.6H7.6C8.2,47.7,13.9,34.5,23.6,24.6z M7.6,66.5H37
		c0.2,10,1.7,19.3,4.4,27.6c-6.7,2.5-12.4,6-16.7,10.4C14.4,94.5,8.2,80.9,7.6,66.5z M28.5,107.8c3.8-3.7,8.8-6.7,14.6-8.9
		c3.3,8.4,7.9,15.6,13.5,21.1C46.3,118.6,36.5,114.4,28.5,107.8z M62.4,118.5c-6-5.1-11-12.4-14.5-21.2c4.5-1.3,9.4-2.1,14.5-2.4
		V118.5z M62.4,89.8c-5.6,0.3-11.1,1.2-16.2,2.7c-2.5-7.9-4-16.7-4.2-26h20.4V89.8z M62.4,61.5H42.1c0.2-8.5,1.5-16.6,3.7-23.9
		c5.2,1.6,10.8,2.5,16.6,2.8V61.5z M62.4,35.4c-5.3-0.3-10.3-1.2-15-2.6c3.5-9.4,8.7-17.2,15-22.6V35.4z M120.4,61.5H91
		c-0.2-8.5-1.4-16.6-3.4-23.9c7.6-2.3,14.3-5.7,19.4-10.3C115.1,36.9,119.9,48.9,120.4,61.5z M103.5,23.6C99,27.5,92.9,30.7,86,32.7
		c-3.5-10.1-8.7-18.6-15.4-24.8C82.9,9.4,94.5,14.9,103.5,23.6z M67.4,11.9C73.2,17.4,77.9,25,81,34c-4.3,0.9-8.9,1.4-13.6,1.5V11.9
		z M67.4,40.5c5.2-0.1,10.3-0.6,15.1-1.7c2,7,3.1,14.6,3.3,22.6H67.4V40.5z M67.4,66.5h18.5c-0.2,8.9-1.5,17.2-3.8,24.8
		c-4.7-1-9.6-1.5-14.7-1.6V66.5z M67.4,94.7c4.5,0.1,8.9,0.5,13.1,1.4c-3.2,8.4-7.6,15.5-13.1,20.7V94.7z M71.4,120
		c6-5.8,10.8-13.6,14.1-22.7c6.5,1.8,12.2,4.6,16.7,8.3C93.6,113.5,82.9,118.5,71.4,120z M105.8,102c-5-4.1-11.5-7.3-18.7-9.4
		c2.4-7.9,3.7-16.7,3.9-26h29.4C119.8,79.7,114.7,92.1,105.8,102z"/>
	<path id="camera_2_" class="st1" d="M100.5,33.1l-6.4-14.4c-1.2-2.7-3.8-4.4-6.7-4.4H42.5c-2.6,0-5.1,1.4-6.4,3.7l-6.2,15.1h-25
		C2.2,33.1,0,35.3,0,38v70.8c0,2.7,2.2,4.9,4.9,4.9h118.2c2.7,0,4.9-2.2,4.9-4.9V38c0-2.7-2.2-4.9-4.9-4.9H100.5z M65.2,103.7
		c-18,0-32.5-14.5-32.5-32.5s14.6-32.5,32.5-32.5s32.5,14.5,32.5,32.5S83.2,103.7,65.2,103.7z M65.2,91.1c-11,0-19.9-8.9-19.9-19.9
		s8.9-19.9,19.9-19.9s19.9,8.9,19.9,19.9S76.2,91.1,65.2,91.1z M65.2,56.1c-8.3,0-15,6.7-15,15s6.7,15,15,15s15-6.7,15-15
		S73.5,56.1,65.2,56.1z"/>
	<path id="Key_2_" class="st1" d="M112.8,0L60.1,52.1c-5.4-2.7-11.5-4.3-17.9-4.3c-22.2,0-40.1,17.9-40.1,40
		C2.1,110,20,128,42.2,128s40.1-18,40.1-40.1c0-5.5-1.1-10.7-3.1-15.4l6.6-9.1l0.9-9.3l8.1,1.2l1.2-11l8.1,1.2l0.3-9.9l10.8-1.8
		l2.7-8.9l8.1,1.8V0H112.8z M33.2,109.4c-5.9,0-10.7-4.8-10.7-10.7c0-6,4.8-10.8,10.7-10.8c6,0,10.8,4.8,10.8,10.8
		C44,104.6,39.2,109.4,33.2,109.4z"/>
	<path id="Tag" class="st1" d="M19.3,49.5c-3.3-1.4-4.9-5.2-3.5-8.5s5.2-4.9,8.5-3.5s4.9,5.2,3.5,8.5C26.4,49.4,22.6,50.9,19.3,49.5
		z M124.2,47.3L42.8,13.4L0,34.5l15.2,45.3l82.9,34.6c2.3,1,4.9-0.1,5.9-2.4l23.6-56.5C128.8,52.2,127.3,48.6,124.2,47.3z
		 M99.9,101.6c-1,2.5-3.9,3.7-6.4,2.6l-67-27.9c-2.5-1-3.7-3.9-2.6-6.4L42,26.5c1-2.5,3.9-3.7,6.4-2.6l67,27.9
		c2.5,1,3.7,3.9,2.6,6.4L99.9,101.6z M65.3,65.4c0.8,1.9,0.8,3.8-0.1,5.7c-0.8,1.9-2.2,3.2-4.1,4s-3.8,0.8-5.7-0.1
		c-1.9-0.8-3.2-2.2-4-4.1s-0.8-3.8,0.1-5.7c0.8-1.9,2.2-3.2,4.1-4c1.9-0.8,3.8-0.8,5.7,0.1C63.2,62.2,64.5,63.5,65.3,65.4z M61.3,67
		c-0.3-0.8-0.9-1.4-1.7-1.7c-0.8-0.3-1.6-0.4-2.4,0c-0.8,0.3-1.4,0.9-1.8,1.7c-0.3,0.8-0.4,1.6,0,2.4c0.3,0.8,0.9,1.4,1.7,1.7
		s1.6,0.4,2.4,0c0.8-0.3,1.4-0.9,1.8-1.7C61.6,68.7,61.6,67.8,61.3,67z M57.7,50.2l1.2-2.8l21.2,26.7L78.9,77L57.7,50.2z M86.4,53.2
		c0.8,1.9,0.8,3.8-0.1,5.7c-0.8,1.9-2.2,3.2-4.1,4s-3.8,0.7-5.7-0.1c-1.9-0.8-3.3-2.2-4-4.1c-0.8-1.9-0.7-3.8,0.1-5.7
		c0.8-1.9,2.2-3.2,4.1-4s3.8-0.8,5.7,0.1C84.3,49.9,85.6,51.3,86.4,53.2z M78.3,53c-0.8,0.3-1.4,0.9-1.7,1.7c-0.3,0.8-0.4,1.6,0,2.4
		c0.3,0.8,0.9,1.4,1.7,1.7c0.8,0.3,1.6,0.4,2.4,0c0.8-0.3,1.4-0.9,1.7-1.7c0.3-0.8,0.4-1.6,0-2.4c-0.3-0.8-0.9-1.4-1.7-1.7
		C79.9,52.7,79.1,52.7,78.3,53z"/>
	<path id="Inbox_2_" class="st1" d="M119.9,116.1H8.1c-4.5,0-8.1-3.6-8.1-8.1V71l15-51.4c1.1-4.5,5.3-7.8,10.1-7.8h75.6
		c4.6,0,8.8,3.1,10,7.6L128,71v37C128,112.5,124.4,116.1,119.9,116.1z M7,72v36c0,0.6,0.5,1.2,1.2,1.2H120c0.6,0,1.2-0.5,1.2-1.2
		V72.1l-16.9-50.6c-0.5-1.6-1.8-2.7-3.4-2.7H25.1c-1.6,0-3,1.1-3.4,2.6L7,72z M80.1,87.8H48.3L39,71.5H25.4c-1.8,0-3.5-0.8-4.6-2.2
		c-1.1-1.4-1.5-3.2-1.1-5l11.2-40h64.4L108,64.1c0.5,1.9,0.2,3.7-0.9,5.2s-2.8,2.3-4.6,2.3H89.1L80.1,87.8z M52.3,80.8H76l8.9-16.2
		h15.9L90.3,31.3h-54L27,64.6h16L52.3,80.8z"/>
	<path id="picture_2_" class="st1" d="M0,11.4v105.2h128V11.4H0z M120.6,109.2H7.4V18.8h113.2V109.2z M15.6,24.9v77.9h96.8V24.9
		H15.6z M23,32.3h82v60.3L87.8,75.4L75.5,92.7L38.2,49.9L23,68.7V32.3z M69.3,53.6c0-6.6,5.3-11.9,11.9-11.9S93.1,47,93.1,53.6
		s-5.3,11.9-11.9,11.9C74.7,65.5,69.3,60.2,69.3,53.6z"/>
</g>
<g id="row2" class="st0">
	<path id="Home" class="st1" d="M9.8,77.4L0,65.4l67.1-53.9L128,61.1l-10,11.8L67,31.6L9.8,77.4z M67,38.2L19.4,76.6v39.9h34.7V88.7
		c0-7,5.8-12.9,12.9-12.9s12.9,5.8,12.9,12.9v27.8h34.7V76.6L67,38.2z"/>
	<path id="mouse_2_" class="st1" d="M58.8,48.2H23.1v-7.7c0-20.7,15.6-38,35.7-40.5C58.8,0,58.8,48.2,58.8,48.2z M92.9,11.7
		C86.6,5.4,78.4,1.1,69.2,0v48.2h35.7v-7.7C104.9,29.3,100.3,19.1,92.9,11.7z M23.1,87.1c0,22.5,18.4,40.9,40.9,40.9
		s40.9-18.4,40.9-40.9V58.6H23.1V87.1z"/>
	<path id="dashboard_1_" class="st1" d="M64,25.2c-35.3,0-64,28.7-64,64c0,3.7,0.3,7.4,0.9,10.9l0.5,2.7h125.2l0.5-2.7
		c0.6-3.5,0.9-7.2,0.9-10.9C128,53.9,99.3,25.2,64,25.2z M121,96.2H7c-0.3-2.3-0.4-4.6-0.4-7c0-31.7,25.8-57.4,57.4-57.4
		c31.7,0,57.4,25.7,57.4,57.4C121.4,91.6,121.3,93.9,121,96.2z M74.5,78.7c0.4,1.1,0.5,2.2,0.5,3.3c0,6.1-4.9,11-11,11
		s-11-4.9-11-11s4.9-11,11-11c2.5,0,4.8,0.8,6.7,2.3L99.2,55L74.5,78.7z M28.3,55.8c8.1-11.3,21.7-18,36.2-18
		c12.2,0,24.6,3.8,32.3,13.8l-8.2,5.3C81.9,50,74.5,46,64.5,46C40.1,46,28.3,55.8,28.3,55.8z"/>
	<path id="setting_1_" class="st1" d="M120.2,70l-1.7-1.2c-3.4-2.3-3.4-7.3,0-9.6l1.7-1.2c10-6.9,4.9-22.5-7.2-22.2l-2.1,0.1
		c-4.1,0.1-7-3.9-5.6-7.8l0.7-2c4-11.4-9.3-21.1-19-13.7l-1.6,1.3c-3.2,2.5-8,1-9.1-3l-0.6-2c-3.4-11.6-20-11.6-23.4,0l-0.6,2
		c-1.1,3.9-5.9,5.5-9.1,3L41,12.4C31.3,5,18,14.7,22.1,26.2l0.7,2c1.4,3.8-1.6,7.9-5.6,7.8L15,35.8C2.9,35.5-2.2,51.2,7.8,58
		l1.7,1.2c3.4,2.3,3.4,7.3,0,9.6L7.8,70c-10,6.9-4.9,22.5,7.2,22.2l2.1-0.1c4.1-0.1,7,3.9,5.6,7.8l-0.7,2c-4,11.4,9.3,21.1,19,13.7
		l1.6-1.3c3.2-2.5,8-1,9.1,3l0.6,2c3.4,11.6,20,11.6,23.4,0l0.6-2c1.1-3.9,5.9-5.5,9.1-3l1.6,1.3c9.6,7.4,23-2.3,18.9-13.7l-0.7-2
		c-1.4-3.8,1.6-7.9,5.6-7.8l2.1,0.1C125.1,92.5,130.2,76.8,120.2,70z M64,85.8C52,85.8,42.2,76,42.2,64S52,42.2,64,42.2
		S85.8,52,85.8,64S76,85.8,64,85.8z"/>
	<path id="Message_1_" class="st1" d="M44.5,62.4L0.2,100.1C0.1,99.7,0,99.3,0,98.8V29.2c0-1.3,0.5-2.4,1.3-3.3L44.5,62.4z
		 M123.1,24.3H7.4L64,70.7l61.5-45.8C124.8,24.5,124,24.3,123.1,24.3z M64,78L48.5,65.3L3.7,103.5c0.4,0.1,0.8,0.2,1.2,0.2h118.3
		c1.2,0,2.3-0.4,3.1-1.1L81.8,64.8L64,78z M86,62l42,35.5V29.1L86,62z"/>
	<path id="Task_1_" class="st1" d="M12.2,21.4h10.3v-7.9H4.3V128h76v-7.9H12.2V21.4z M81.2,13.5v7.9h11.6v73.9h7.9V13.5H81.2z
		 M22.7,45.6v7.9h58.1v-7.9H22.7z M22.7,67.2V75h58.1v-7.9L22.7,67.2L22.7,67.2z M22.7,89.3v7.9h58.1v-7.9H22.7z M64.3,10.1
		C63,4.3,57.9,0,51.8,0S40.5,4.3,39.3,10.1H27.7v17.4H76V10.1H64.3z M123.7,93.6l-5.7-5.4l-23.4,24.7c-2.8-3-6.8-7.3-8.2-8.7
		l-5.6,5.6c2.1,2.1,10.8,11.5,10.9,11.6l2.9,3.1L123.7,93.6z"/>
	<path id="Cloud_2_" class="st1" d="M108,107.2H17c-7.1,0-17-6.2-17-17.9c0-15,11.4-27.3,26-28.7c-0.3-1.7-0.5-3.4-0.5-5.2
		C25.2,38.5,38,23.5,54.6,21.2c16.5-2.3,31.8,7.4,37,22.8c0.8-0.1,1.6-0.1,2.4-0.1c18.7,0,34,15.2,34,34c0,10.9-5.3,21.2-14.1,27.5
		C112.2,106.5,110.1,107.2,108,107.2z M29.1,67c-0.1,0-0.2,0-0.3,0C16.6,67,6.6,77,6.6,89.3c0,8.5,7.7,11.3,10.4,11.3h91
		c0.7,0,1.4-0.2,2-0.7c7.1-5.1,11.3-13.4,11.3-22.1c0-15.1-12.3-27.4-27.4-27.4c-1.5,0-2.9,0.1-4.2,0.3l-3.1,0.6l-0.7-3
		c-3.3-13.7-16.4-22.6-30.5-20.6c-13.3,1.8-23.6,14-23.4,27.6c0,2.7,0.5,5.2,1.2,7.5l1.6,4.9l-5.2-0.6C29.6,67,29.4,67,29.1,67z"/>
	<path id="shopping_2_" class="st1" d="M45.6,86.4l70.7-9.8L128,20.9l-99.7,1.7L22.2,2.8H0v7.4h16.7L39,82.9l-1.2,3.2
		c-1.4,3.5-0.9,7.4,1.3,10.5c2.1,2.9,5.5,4.6,9,4.6h0.5l70.6-2.7l-0.3-7.4l-70.6,2.7c-1.3,0.1-2.4-0.5-3.2-1.5
		c-0.7-1.1-0.9-2.3-0.4-3.5L45.6,86.4z M30.5,30l88.3-1.5L110.2,70l-64.6,8.9L30.5,30z M38.6,114.6c0-5.8,4.7-10.6,10.6-10.6
		s10.6,4.7,10.6,10.6c0,5.8-4.7,10.6-10.6,10.6S38.6,120.4,38.6,114.6z M99.1,112.1c0-5.8,4.7-10.6,10.6-10.6
		c5.8,0,10.6,4.7,10.6,10.6c0,5.8-4.7,10.6-10.6,10.6C103.8,122.7,99.1,118,99.1,112.1z"/>
	<path id="multiple_x5F_windows_2_" class="st1" d="M42.3,19.6c-2.4,0-4.3,1.9-4.3,4.3s1.9,4.3,4.3,4.3c2.4,0,4.3-1.9,4.3-4.3
		C46.5,21.5,44.6,19.6,42.3,19.6z M29.4,19.6c-2.4,0-4.3,1.9-4.3,4.3s1.9,4.3,4.3,4.3s4.3-1.9,4.3-4.3
		C33.7,21.5,31.8,19.6,29.4,19.6z M16.6,19.6c-2.4,0-4.3,1.9-4.3,4.3s1.9,4.3,4.3,4.3s4.3-1.9,4.3-4.3C20.9,21.5,19,19.6,16.6,19.6z
		 M42.3,19.6c-2.4,0-4.3,1.9-4.3,4.3s1.9,4.3,4.3,4.3c2.4,0,4.3-1.9,4.3-4.3C46.5,21.5,44.6,19.6,42.3,19.6z M29.4,19.6
		c-2.4,0-4.3,1.9-4.3,4.3s1.9,4.3,4.3,4.3s4.3-1.9,4.3-4.3C33.7,21.5,31.8,19.6,29.4,19.6z M16.6,19.6c-2.4,0-4.3,1.9-4.3,4.3
		s1.9,4.3,4.3,4.3s4.3-1.9,4.3-4.3C20.9,21.5,19,19.6,16.6,19.6z M42.3,19.6c-2.4,0-4.3,1.9-4.3,4.3s1.9,4.3,4.3,4.3
		c2.4,0,4.3-1.9,4.3-4.3C46.5,21.5,44.6,19.6,42.3,19.6z M29.4,19.6c-2.4,0-4.3,1.9-4.3,4.3s1.9,4.3,4.3,4.3s4.3-1.9,4.3-4.3
		C33.7,21.5,31.8,19.6,29.4,19.6z M16.6,19.6c-2.4,0-4.3,1.9-4.3,4.3s1.9,4.3,4.3,4.3s4.3-1.9,4.3-4.3C20.9,21.5,19,19.6,16.6,19.6z
		 M0,10.1v83.1h105.2V10.1H0z M6.4,16.5h92.4v15.2H6.4V16.5z M98.8,86.8H6.4V38.1h92.4V86.8z M116.7,106.6h-83V101h77.4V35.3h5.6
		V106.6z M128,117.9H45v-5.6h77.4V46.6h5.6V117.9z"/>
	<path id="options_2_" class="st1" d="M34.1,51.1v39.8h-9.4V128H12.1V90.9H2.7V51.1h9.4V0h12.6v51.1H34.1z M71.9,73.1V0H59.3v73.1
		h-9.4v39.8h9.4V128h12.6v-15.1h9.4V73.1H71.9z M115.9,16.5V0h-12.6v16.5h-9.4v39.8h9.4V128h12.6V56.3h9.4V16.5H115.9z"/>
</g>
<g id="row1" class="st0">
	<path id="search_1_" class="st1" d="M119.1,124.8L85.3,94.3c-19.5,16.6-48.9,16.6-68.3-1l0,0c-21.2-19.2-22.8-52-3.6-73.1
		C32.5-1,65.3-2.6,86.5,16.5c19.5,17.6,22.4,46.9,7.8,67.9L128,115L119.1,124.8z M25.9,83.4c15.7,14.2,40.1,13,54.3-2.7
		s13-40.1-2.7-54.3s-40.1-13-54.3,2.7S10.2,69.2,25.9,83.4L25.9,83.4z"/>
	<path id="Lab_1_" class="st1" d="M83.9,50.4V8.1h9.6V0h-59v8.1h9.6v42.3C31,57.6,22.6,71.6,22.6,86.6c0,22.8,18.6,41.4,41.4,41.4
		s41.4-18.5,41.4-41.4C105.4,71.6,97,57.6,83.9,50.4z M49.9,56.6l2.3-1.1V8.1h23.6v47.4l2.3,1.1C88.7,61.5,95.8,71.7,97,83.1
		c-9.3,2-33.3,19-66.2,5.3c0-0.6-0.1-1.2-0.1-1.8C30.7,73.8,38.3,62,49.9,56.6z"/>
	<path id="feed_1_" class="st1" d="M81.5,128H63c0-34.7-28.3-63-63-63V46.5C44.9,46.5,81.5,83.1,81.5,128z M0,0v18.5
		c60.4,0,109.5,49.1,109.5,109.5H128C128,57.4,70.6,0,0,0z M16.9,128c9.3,0,16.9-7.6,16.9-16.9s-7.6-16.9-16.9-16.9S0,101.7,0,111.1
		S7.6,128,16.9,128z"/>
	<path id="comment_1_" class="st1" d="M128,18.2v37.5c0,5.5-4.5,10-10,10h-2.5v16.7L95.9,65.7h-6.7V39.8c0-5.5-4.5-10-10-10H50.4
		V18.2c0-5.5,4.5-10,10-10H118C123.5,8.2,128,12.7,128,18.2z M19.2,119.8V99h-5.6C6.1,99,0,92.9,0,85.5V48c0-7.5,6.1-13.5,13.5-13.5
		h60.9c9,0,10.2,5.2,10.2,10.9v40.2c0,7.5-6.1,13.5-13.5,13.5H43.7L19.2,119.8z M13.6,41.5c-3.6,0-6.5,2.9-6.5,6.5v37.5
		c0,3.6,2.9,6.5,6.5,6.5h12.7v12.6L41.1,92h30.1c3.6,0,6.5-2.9,6.5-6.5V45.3c0-2.9-0.4-3.4-0.4-3.5c0,0-0.5-0.4-2.7-0.4h-61V41.5z"
		/>
	<path id="bell_1_" class="st1" d="M71.8,84.2c-2.1,1.6-4,3.7-5.5,6.3c-4.7,8.4-2.8,18.5,4.3,22.4c7.1,4,16.7,0.4,21.4-8
		c1.8-3.2,2.6-6.6,2.6-9.8C88.4,90.9,80.6,87.2,71.8,84.2z M71.8,84.2c-2.1,1.6-4,3.7-5.5,6.3c-4.7,8.4-2.8,18.5,4.3,22.4
		c7.1,4,16.7,0.4,21.4-8c1.8-3.2,2.6-6.6,2.6-9.8C88.4,90.9,80.6,87.2,71.8,84.2z M71.8,84.2c-2.1,1.6-4,3.7-5.5,6.3
		c-4.7,8.4-2.8,18.5,4.3,22.4c7.1,4,16.7,0.4,21.4-8c1.8-3.2,2.6-6.6,2.6-9.8C88.4,90.9,80.6,87.2,71.8,84.2z M115.6,97.1
		c-2.8-12.6-5.8-30.1-3.7-41.5c2.5-13.4-0.6-26.6-8.8-35.5c0.1-0.1,0.1-0.2,0.1-0.3c2.6-8.4-1.2-17.1-8.4-19.3
		c-6.6-2-13.8,2.1-16.9,9.3C72.4,10,67,11.7,62.2,14.3c-8,4.4-14.5,11.6-17.6,19.9c-4.1,10.9-17.7,25.5-26.5,34.1
		c-6.2,2.1-10.3,5.5-11.9,10.3c-4.5,14.1,17,32.6,49.9,43.1s61.2,7.8,65.6-6.3C123.6,109.7,121.2,103.4,115.6,97.1z M91.3,5.9
		c0.6,0,1.2,0.1,1.8,0.3c3.5,1.1,5.5,5.1,5,9.6c-2.7-1.9-5.7-3.4-9.1-4.5c-1.5-0.5-3.1-0.9-4.6-1.1C86.1,7.5,88.8,5.9,91.3,5.9z
		 M116.1,113.5c-2.9,9-27.4,12.2-58.1,2.4c-14.3-4.6-27-11-35.8-18.2C14.3,91.2,10.5,84.9,12,80.4c0.4-1.2,1.2-2.4,2.4-3.3
		c7.4-6.3,29.3-7.5,55.7,1c4.3,1.4,8.5,2.9,12.5,4.6c8.5,3.6,16.1,7.9,22,12.5c0.5,0.4,0.9,0.7,1.4,1.1c6.8,5.6,10.5,11,10.5,15.2
		C116.4,112.2,116.3,112.9,116.1,113.5z"/>
	<path id="History_1_" class="st1" d="M128,64c0,30.9-25.1,56.1-56.1,56.1c-13.3,0-26.1-4.7-36.2-13.3l4.8-5.7
		c8.7,7.4,19.9,11.5,31.4,11.5c26.8,0,48.6-21.8,48.6-48.6S98.7,15.4,71.9,15.4c-24.9,0-45.6,18.9-48.3,43.1h15.6l-19.6,18L0,58.5
		h16.1C18.9,30.2,42.9,7.9,71.9,7.9C102.9,7.9,128,33.1,128,64z M90.1,63.8H73.6V28.5h-7.5v42.8h24V63.8z"/>
	<path id="browser_1_" class="st1" d="M51.4,24.9c-2.9,0-5.2,2.3-5.2,5.2c0,2.9,2.3,5.2,5.2,5.2s5.2-2.3,5.2-5.2
		C56.6,27.2,54.3,24.9,51.4,24.9z M35.8,24.9c-2.9,0-5.2,2.3-5.2,5.2c0,2.9,2.3,5.2,5.2,5.2S41,33,41,30.1
		C41,27.2,38.7,24.9,35.8,24.9z M20.2,24.9c-2.9,0-5.2,2.3-5.2,5.2c0,2.9,2.3,5.2,5.2,5.2s5.2-2.3,5.2-5.2
		C25.4,27.2,23.1,24.9,20.2,24.9z M51.4,24.9c-2.9,0-5.2,2.3-5.2,5.2c0,2.9,2.3,5.2,5.2,5.2s5.2-2.3,5.2-5.2
		C56.6,27.2,54.3,24.9,51.4,24.9z M35.8,24.9c-2.9,0-5.2,2.3-5.2,5.2c0,2.9,2.3,5.2,5.2,5.2S41,33,41,30.1
		C41,27.2,38.7,24.9,35.8,24.9z M20.2,24.9c-2.9,0-5.2,2.3-5.2,5.2c0,2.9,2.3,5.2,5.2,5.2s5.2-2.3,5.2-5.2
		C25.4,27.2,23.1,24.9,20.2,24.9z M51.4,24.9c-2.9,0-5.2,2.3-5.2,5.2c0,2.9,2.3,5.2,5.2,5.2s5.2-2.3,5.2-5.2
		C56.6,27.2,54.3,24.9,51.4,24.9z M35.8,24.9c-2.9,0-5.2,2.3-5.2,5.2c0,2.9,2.3,5.2,5.2,5.2S41,33,41,30.1
		C41,27.2,38.7,24.9,35.8,24.9z M20.2,24.9c-2.9,0-5.2,2.3-5.2,5.2c0,2.9,2.3,5.2,5.2,5.2s5.2-2.3,5.2-5.2
		C25.4,27.2,23.1,24.9,20.2,24.9z M0,13.4v101.2h128V13.4H0z M7.8,21.2h112.4v18.5H7.8V21.2z M120.2,106.8H7.8V47.5h112.4
		C120.2,47.5,120.2,106.8,120.2,106.8z"/>
	<path id="copyright_1_" class="st1" d="M64,128C28.7,128,0,99.3,0,64S28.7,0,64,0s64,28.7,64,64S99.3,128,64,128z M64,10.7
		c-29.4,0-53.3,23.9-53.3,53.3s23.9,53.3,53.3,53.3s53.3-23.9,53.3-53.3S93.4,10.7,64,10.7z M80.4,38c4.1,3.2,6.6,8.7,7.4,16.4h-9.5
		c-0.6-3.6-1.9-6.6-4-8.9c-2-2.3-5.3-3.5-9.8-3.5c-6.2,0-10.7,3-13.4,9.1c-1.7,3.9-2.6,8.8-2.6,14.6s1.2,10.7,3.7,14.7s6.3,6,11.6,6
		c4.1,0,7.3-1.2,9.6-3.7c2.4-2.5,4-5.8,4.9-10.1h9.5c-1.1,7.7-3.8,13.3-8.1,16.9c-4.3,3.6-9.9,5.3-16.7,5.3
		c-7.6,0-13.7-2.8-18.2-8.3C40.3,80.9,38,74,38,65.7c0-10.2,2.5-18.1,7.4-23.8s11.3-8.5,18.9-8.5C71,33.3,76.3,34.8,80.4,38z"/>
	<path id="At_1_" class="st1" d="M38,88.6c-4.3-4.6-6.4-11-6.4-19.3c0-9.6,3.3-18.6,9.8-26.9s14.5-12.6,24-12.6
		c5.6,0,9.9,1.5,13,4.6c2.3,2.4,3.9,5.1,4.7,8.2l2.9-10h15L90.7,67.1c-0.8,2.8-1.4,4.9-1.7,6.2c-0.3,1.4-0.5,2.5-0.5,3.5
		c0,1.6,0.5,3.1,1.6,4.5s2.8,2.1,5.1,2.1c4.6,0,9.1-3,13.7-8.9c4.6-6,6.9-13.9,6.9-23.7c0-14.6-6.3-25-18.8-31.4
		c-7.8-4-16.7-6-26.5-6c-18,0-32.5,5.5-43.4,16.5c-9.9,10-14.8,21.9-14.8,35.8c0,15.5,5.8,27.7,17.3,36.8c10.2,8,22.7,12,37.4,12
		c10.1,0,19.5-1.9,28.2-5.6c4.8-2,9.7-4.7,14.8-8.3l1.9-1.4l5.8,8.9c-7.5,5.8-15.7,10.3-24.4,13.3S75.5,126,66.1,126
		c-22,0-39-6.8-51.1-20.5C5,94.2,0,80.8,0,65.3c0-17.4,6.3-32.1,18.8-44.2C31.9,8.3,48.7,2,69.2,2c16.7,0,30.5,4.4,41.5,13.1
		c11.5,9.2,17.3,21.4,17.3,36.7c0,12-3.7,22.3-11,30.9s-15.7,12.9-25,12.9c-4.9,0-8.6-1.4-11.2-4.1c-2.6-2.8-3.9-5.6-3.9-8.5
		c0-0.4,0-0.8,0-1.2c0-0.5,0.1-0.9,0.1-1.5c-2,3.8-4.3,6.9-6.8,9.1c-4.5,4.1-9.9,6.1-16.2,6.1C47.6,95.5,42.3,93.2,38,88.6z
		 M76,43.6c-1.7-1.9-4-2.9-6.8-2.9C63.7,40.7,59,44.1,55,51s-6,13.5-6,19.9c0,3.9,0.9,7,2.7,9.4s4.3,3.6,7.5,3.6
		c5.7,0,10.3-4.3,13.9-12.9s5.4-15.4,5.4-20.3C78.5,47.8,77.7,45.5,76,43.6z"/>
	<path id="calendar_1_" class="st1" d="M128,128H0V10.1h9.9v108.5h108.2V10.1h9.9V128z M34.7,0h-9.9v27.4h9.9V0z M57.5,0h-9.9v27.4
		h9.9V0z M80.4,0h-9.9v27.4h9.9V0z M103.2,0h-9.9v27.4h9.9V0z M37.3,41.4H22.1V56h15.2V41.4z M60.2,56H45V41.4h15.2V56z M83,56H67.8
		V41.4H83V56z M105.9,56H90.7V41.4h15.2C105.9,41.4,105.9,56,105.9,56z M37.3,67H22.1v14.6h15.2V67z M60.2,81.6H45V67h15.2V81.6z
		 M83,81.6H67.8V67H83V81.6z M105.9,81.6H90.7V67h15.2C105.9,67,105.9,81.6,105.9,81.6z M37.3,92.5H22.1v14.6h15.2V92.5z
		 M60.2,107.1H45V92.5h15.2V107.1z M83,107.1H67.8V92.5H83V107.1z M105.9,107.1H90.7V92.5h15.2C105.9,92.5,105.9,107.1,105.9,107.1z
		"/>
</g>
</svg>
