<?xml version="1.0" encoding="utf-8"?>
<!-- Generator: Adobe Illustrator 23.0.1, SVG Export Plug-In . SVG Version: 6.00 Build 0)  -->
<svg version="1.1" id="Layer_1" xmlns="http://www.w3.org/2000/svg" xmlns:xlink="http://www.w3.org/1999/xlink" x="0px" y="0px"
	 viewBox="0 0 418 110" style="enable-background:new 0 0 418 110;" xml:space="preserve">
<style type="text/css">
	.st0{fill:none;}
	.st1{fill:#FFFFFF;}
	.st2{fill:#FF5F00;}
	.st3{fill:#EB001B;}
	.st4{fill:#F79E1B;}
</style>
<title>mc_hrz_rgb_pos</title>
<g>
	<g id="Layer_1-2">
		<rect x="-35" y="0" class="st0" width="479" height="110"/>
		<path class="st1" d="M181.4,67.1v-15c0-5.7-3.6-9.5-9.4-9.5c-3.4-0.2-6.6,1.4-8.4,4.3c-1.7-2.8-4.7-4.4-7.9-4.3
			c-2.8-0.1-5.5,1.2-7,3.6v-3h-5.2v24h5.3V53.8c0-4.2,2.3-6.4,5.9-6.4s5.2,2.2,5.2,6.3V67h5.2V53.8c0-4.2,2.4-6.4,5.9-6.4
			s5.3,2.2,5.3,6.3V67L181.4,67.1L181.4,67.1z M259.2,43.2h-8.5v-7.3h-5.3v7.3h-4.9V48h4.9v10.9c0,5.6,2.1,8.9,8.3,8.9
			c2.3,0,4.6-0.6,6.5-1.8l-1.5-4.5c-1.4,0.8-3,1.3-4.6,1.3c-2.6,0-3.5-1.6-3.5-4V47.9h8.5L259.2,43.2z M303.6,42.6
			c-2.6-0.1-5,1.3-6.3,3.5v-2.9h-5.2v23.9h5.2V53.7c0-4,1.7-6.2,5.1-6.2c1.1,0,2.2,0.2,3.3,0.6l1.6-4.9
			C306.2,42.8,304.9,42.6,303.6,42.6z M236.5,45.1c-2.9-1.8-6.3-2.6-9.8-2.5c-6.1,0-10,2.9-10,7.7c0,3.9,2.9,6.3,8.3,7.1l2.5,0.3
			c2.9,0.4,4.2,1.2,4.2,2.5c0,1.8-1.9,2.9-5.5,2.9c-2.9,0.1-5.7-0.8-8-2.5l-2.4,4c3,2.1,6.7,3.2,10.4,3.1c6.9,0,10.9-3.3,10.9-7.8
			c0-4.2-3.2-6.4-8.4-7.2l-2.5-0.3c-2.2-0.3-4.1-0.8-4.1-2.3c0-1.8,1.7-2.8,4.6-2.8c2.6,0,5.2,0.7,7.5,2L236.5,45.1z M376,42.6
			c-2.6-0.1-5,1.3-6.3,3.5v-2.9h-5.2v23.9h5.2V53.7c0-4,1.7-6.2,5.1-6.2c1.1,0,2.2,0.2,3.3,0.6l1.6-4.9
			C378.5,42.8,377.3,42.6,376,42.6z M308.9,55.1c0,7.3,5.1,12.6,12.8,12.6c3.1,0.2,6.2-0.9,8.6-2.9l-2.5-4.2c-1.8,1.4-4,2.1-6.3,2.2
			c-4.2,0-7.2-3.1-7.2-7.7s3.1-7.6,7.2-7.7c2.3,0,4.5,0.8,6.3,2.2l2.5-4.2c-2.4-2-5.5-3-8.6-2.9C314,42.6,308.9,47.9,308.9,55.1
			L308.9,55.1z M357.7,55.1v-12h-5.2V46c-1.8-2.3-4.6-3.6-7.6-3.5c-6.7,0-12,5.3-12,12.6s5.3,12.6,12,12.6c2.9,0.1,5.8-1.2,7.6-3.5
			v2.9h5.2V55.1z M338.3,55.1c0-4.2,2.8-7.7,7.3-7.7c4.3,0,7.2,3.3,7.2,7.7s-2.9,7.7-7.2,7.7C341.1,62.8,338.3,59.3,338.3,55.1z
			 M275.5,42.6c-7,0-11.9,5.1-11.9,12.6c0,7.6,5.1,12.6,12.3,12.6c3.6,0.1,7.1-1.1,9.8-3.4l-2.5-3.9c-2,1.6-4.5,2.5-7,2.5
			c-3.4,0-6.4-1.5-7.2-5.9h17.8c0-0.7,0.1-1.3,0.1-2C286.8,47.7,282.1,42.6,275.5,42.6L275.5,42.6z M275.4,47.2
			c3.4,0,5.5,2.1,6.1,5.8H269C269.5,49.6,271.6,47.2,275.4,47.2L275.4,47.2z M406,55.1V33.5h-5.2V46c-1.8-2.3-4.6-3.6-7.6-3.5
			c-6.7,0-12,5.3-12,12.6s5.3,12.6,12,12.6c2.9,0.1,5.8-1.2,7.6-3.5v2.9h5.2V55.1z M412.1,64.9c0.2,0,0.4,0,0.6,0.1s0.3,0.2,0.5,0.3
			c0.1,0.1,0.3,0.3,0.3,0.5c0.2,0.4,0.2,0.8,0,1.2c-0.1,0.2-0.2,0.3-0.3,0.5c-0.1,0.1-0.3,0.3-0.5,0.3c-0.2,0.1-0.4,0.1-0.6,0.1
			c-0.6,0-1.2-0.4-1.4-0.9c-0.2-0.4-0.2-0.8,0-1.2c0.2-0.4,0.5-0.7,0.8-0.8C411.7,64.9,411.9,64.9,412.1,64.9L412.1,64.9z
			 M412.1,67.6c0.2,0,0.3,0,0.5-0.1c0.1-0.1,0.3-0.1,0.4-0.2c0.5-0.5,0.5-1.2,0-1.7c-0.1-0.1-0.2-0.2-0.4-0.2
			c-0.1-0.1-0.3-0.1-0.5-0.1s-0.3,0-0.5,0.1c-0.6,0.3-0.9,1-0.6,1.6c0.1,0.1,0.1,0.3,0.2,0.4s0.2,0.2,0.4,0.2
			C411.8,67.6,411.9,67.6,412.1,67.6L412.1,67.6z M412.2,65.7c0.1,0,0.3,0,0.4,0.1s0.2,0.2,0.1,0.3c0,0.1,0,0.2-0.1,0.3
			c-0.1,0.1-0.2,0.1-0.3,0.1l0.5,0.5h-0.4l-0.4-0.5h-0.1V67h-0.3v-1.4L412.2,65.7z M411.8,66v0.4h0.4c0.1,0,0.1,0,0.2,0l0.1-0.1
			c0-0.1,0-0.1-0.1-0.1s-0.1,0-0.2,0L411.8,66z M386.6,55.1c0-4.2,2.8-7.7,7.3-7.7c4.3,0,7.2,3.3,7.2,7.7s-2.9,7.7-7.2,7.7
			C389.4,62.8,386.6,59.3,386.6,55.1z M210.7,55.1v-12h-5.2V46c-1.8-2.3-4.6-3.6-7.5-3.5c-6.7,0-12,5.3-12,12.6s5.3,12.6,12,12.6
			c2.9,0.1,5.8-1.2,7.6-3.5v2.9h5.2L210.7,55.1z M191.4,55.1c0-4.2,2.8-7.7,7.3-7.7c4.3,0,7.2,3.3,7.2,7.7s-2.9,7.7-7.2,7.7
			C194.1,62.8,191.4,59.3,191.4,55.1L191.4,55.1z"/>
		<g id="_Group_">
			<rect x="45.5" y="26.7" class="st2" width="31.5" height="56.6"/>
			<path id="_Path_" class="st3" d="M47.5,55c0-11,5.1-21.5,13.8-28.3C45.7,14.4,23,17.1,10.8,32.8S1.1,71,16.7,83.3
				c13.1,10.3,31.4,10.3,44.5,0C52.5,76.5,47.4,66,47.5,55z"/>
			<path class="st4" d="M119.5,55c0,19.9-16.1,36-36,36c-8.1,0-15.9-2.7-22.2-7.7c15.5-12.3,18.3-34.9,6-50.5
				c-1.8-2.3-3.8-4.3-6.1-6.1c15.6-12.3,38.3-9.6,50.6,6.1C116.8,39.1,119.5,46.9,119.5,55z"/>
			<path class="st4" d="M116,77.3v-1.2h0.5v-0.2h-1.2v0.2h0.5v1.2H116z M118.3,77.3v-1.4H118l-0.4,1l-0.4-1h-0.4v1.4h0.2v-1.1
				l0.4,0.9h0.3l0.4-0.9v1.1H118.3z"/>
		</g>
	</g>
</g>
</svg>
